%TF.GenerationSoftware,KiCad,Pcbnew,(5.1.10)-1*%
%TF.CreationDate,2023-06-21T21:16:52+09:00*%
%TF.ProjectId,pokecom_cas_if,706f6b65-636f-46d5-9f63-61735f69662e,rev?*%
%TF.SameCoordinates,Original*%
%TF.FileFunction,Soldermask,Bot*%
%TF.FilePolarity,Negative*%
%FSLAX46Y46*%
G04 Gerber Fmt 4.6, Leading zero omitted, Abs format (unit mm)*
G04 Created by KiCad (PCBNEW (5.1.10)-1) date 2023-06-21 21:16:52*
%MOMM*%
%LPD*%
G01*
G04 APERTURE LIST*
%ADD10O,1.600000X1.600000*%
%ADD11C,1.600000*%
%ADD12C,2.200000*%
%ADD13O,1.700000X1.700000*%
%ADD14R,1.700000X1.700000*%
%ADD15C,1.200000*%
%ADD16O,2.616000X1.308000*%
%ADD17O,1.308000X2.616000*%
G04 APERTURE END LIST*
D10*
%TO.C,R8*%
X-343000000Y541000000D03*
D11*
X-350620000Y541000000D03*
%TD*%
D10*
%TO.C,R7*%
X-342880000Y535500000D03*
D11*
X-350500000Y535500000D03*
%TD*%
D10*
%TO.C,R6*%
X-326880000Y525000000D03*
D11*
X-334500000Y525000000D03*
%TD*%
D10*
%TO.C,R5*%
X-326880000Y533000000D03*
D11*
X-334500000Y533000000D03*
%TD*%
%TO.C,C4*%
X-334500000Y537000000D03*
X-339500000Y537000000D03*
%TD*%
%TO.C,C3*%
X-334500000Y521500000D03*
X-339500000Y521500000D03*
%TD*%
%TO.C,C2*%
X-334500000Y529000000D03*
X-339500000Y529000000D03*
%TD*%
%TO.C,C1*%
X-334500000Y545000000D03*
X-339500000Y545000000D03*
%TD*%
D12*
%TO.C,*%
X-319000000Y514000000D03*
%TD*%
%TO.C,*%
X-350500000Y514000000D03*
%TD*%
%TO.C,*%
X-351000000Y556500000D03*
%TD*%
%TO.C,*%
X-319000000Y556500000D03*
%TD*%
D13*
%TO.C,J1*%
X-318500000Y521100000D03*
X-318500000Y523640000D03*
X-318500000Y526180000D03*
X-318500000Y528720000D03*
X-318500000Y531260000D03*
X-318500000Y533800000D03*
X-318500000Y536340000D03*
X-318500000Y538880000D03*
X-318500000Y541420000D03*
X-318500000Y543960000D03*
D14*
X-318500000Y546500000D03*
%TD*%
D13*
%TO.C,J2*%
X-323500000Y521100000D03*
X-323500000Y523640000D03*
X-323500000Y526180000D03*
X-323500000Y528720000D03*
X-323500000Y531260000D03*
X-323500000Y533800000D03*
X-323500000Y536340000D03*
X-323500000Y538880000D03*
X-323500000Y541420000D03*
X-323500000Y543960000D03*
D14*
X-323500000Y546500000D03*
%TD*%
D13*
%TO.C,J3*%
X-331340000Y553000000D03*
X-333880000Y553000000D03*
X-336420000Y553000000D03*
X-338960000Y553000000D03*
D14*
X-341500000Y553000000D03*
%TD*%
D15*
%TO.C,J4*%
X-350500000Y519000000D03*
X-353000000Y519000000D03*
X-345500000Y524000000D03*
X-350500000Y529000000D03*
X-353000000Y529000000D03*
D16*
X-345500000Y529000000D03*
X-345500000Y526500000D03*
X-345500000Y521500000D03*
X-345500000Y519000000D03*
D17*
X-350500000Y524000000D03*
%TD*%
M02*
