%TF.GenerationSoftware,KiCad,Pcbnew,(5.1.10)-1*%
%TF.CreationDate,2023-06-21T21:16:52+09:00*%
%TF.ProjectId,pokecom_cas_if,706f6b65-636f-46d5-9f63-61735f69662e,rev?*%
%TF.SameCoordinates,Original*%
%TF.FileFunction,Copper,L1,Top*%
%TF.FilePolarity,Positive*%
%FSLAX46Y46*%
G04 Gerber Fmt 4.6, Leading zero omitted, Abs format (unit mm)*
G04 Created by KiCad (PCBNEW (5.1.10)-1) date 2023-06-21 21:16:52*
%MOMM*%
%LPD*%
G01*
G04 APERTURE LIST*
%TA.AperFunction,ComponentPad*%
%ADD10O,1.600000X1.600000*%
%TD*%
%TA.AperFunction,ComponentPad*%
%ADD11C,1.600000*%
%TD*%
%TA.AperFunction,SMDPad,CuDef*%
%ADD12R,1.900000X1.000000*%
%TD*%
%TA.AperFunction,SMDPad,CuDef*%
%ADD13R,1.900000X1.800000*%
%TD*%
%TA.AperFunction,SMDPad,CuDef*%
%ADD14R,1.300000X1.650000*%
%TD*%
%TA.AperFunction,SMDPad,CuDef*%
%ADD15R,1.550000X1.425000*%
%TD*%
%TA.AperFunction,SMDPad,CuDef*%
%ADD16R,1.380000X0.450000*%
%TD*%
%TA.AperFunction,ComponentPad*%
%ADD17O,1.700000X1.700000*%
%TD*%
%TA.AperFunction,ComponentPad*%
%ADD18R,1.700000X1.700000*%
%TD*%
%TA.AperFunction,ComponentPad*%
%ADD19O,2.616000X1.308000*%
%TD*%
%TA.AperFunction,ComponentPad*%
%ADD20O,1.308000X2.616000*%
%TD*%
%TA.AperFunction,Conductor*%
%ADD21C,0.500000*%
%TD*%
%TA.AperFunction,Conductor*%
%ADD22C,0.250000*%
%TD*%
%TA.AperFunction,Conductor*%
%ADD23C,0.254000*%
%TD*%
%TA.AperFunction,Conductor*%
%ADD24C,0.100000*%
%TD*%
G04 APERTURE END LIST*
D10*
%TO.P,R8,2*%
%TO.N,Net-(C2-Pad1)*%
X-343000000Y541000000D03*
D11*
%TO.P,R8,1*%
%TO.N,/+5V*%
X-350620000Y541000000D03*
%TD*%
D10*
%TO.P,R7,2*%
%TO.N,Net-(C3-Pad1)*%
X-342880000Y535500000D03*
D11*
%TO.P,R7,1*%
%TO.N,/+5V*%
X-350500000Y535500000D03*
%TD*%
D10*
%TO.P,R6,2*%
%TO.N,/Xout*%
X-326880000Y525000000D03*
D11*
%TO.P,R6,1*%
%TO.N,Net-(C1-Pad2)*%
X-334500000Y525000000D03*
%TD*%
D10*
%TO.P,R5,2*%
%TO.N,/Xin*%
X-326880000Y533000000D03*
D11*
%TO.P,R5,1*%
%TO.N,Net-(C2-Pad2)*%
X-334500000Y533000000D03*
%TD*%
%TO.P,C4,2*%
%TO.N,/LS1*%
X-334500000Y537000000D03*
%TO.P,C4,1*%
%TO.N,Net-(C2-Pad1)*%
X-339500000Y537000000D03*
%TD*%
%TO.P,C3,2*%
%TO.N,Net-(C1-Pad2)*%
X-334500000Y521500000D03*
%TO.P,C3,1*%
%TO.N,Net-(C3-Pad1)*%
X-339500000Y521500000D03*
%TD*%
%TO.P,C2,2*%
%TO.N,Net-(C2-Pad2)*%
X-334500000Y529000000D03*
%TO.P,C2,1*%
%TO.N,Net-(C2-Pad1)*%
X-339500000Y529000000D03*
%TD*%
%TO.P,C1,2*%
%TO.N,Net-(C1-Pad2)*%
X-334500000Y545000000D03*
%TO.P,C1,1*%
%TO.N,/+5V*%
X-339500000Y545000000D03*
%TD*%
D12*
%TO.P,J5,6*%
%TO.N,/VGG*%
X-352700000Y546950000D03*
D13*
X-352700000Y549650000D03*
D14*
X-352700000Y545125000D03*
X-352700000Y551875000D03*
D15*
X-350125000Y546012500D03*
X-350125000Y550987500D03*
D16*
%TO.P,J5,5*%
X-350040000Y547200000D03*
%TO.P,J5,4*%
%TO.N,Net-(J3-Pad4)*%
X-350040000Y547850000D03*
%TO.P,J5,3*%
%TO.N,Net-(J3-Pad3)*%
X-350040000Y548500000D03*
%TO.P,J5,2*%
%TO.N,Net-(J3-Pad2)*%
X-350040000Y549150000D03*
%TO.P,J5,1*%
%TO.N,/+5V*%
X-350040000Y549800000D03*
%TD*%
D17*
%TO.P,J1,11*%
%TO.N,/IB5*%
X-318500000Y521100000D03*
%TO.P,J1,10*%
%TO.N,/IB6*%
X-318500000Y523640000D03*
%TO.P,J1,9*%
%TO.N,/IB7*%
X-318500000Y526180000D03*
%TO.P,J1,8*%
%TO.N,/IB8*%
X-318500000Y528720000D03*
%TO.P,J1,7*%
%TO.N,/Xout*%
X-318500000Y531260000D03*
%TO.P,J1,6*%
%TO.N,/Xin*%
X-318500000Y533800000D03*
%TO.P,J1,5*%
%TO.N,/FO2*%
X-318500000Y536340000D03*
%TO.P,J1,4*%
%TO.N,/FO1*%
X-318500000Y538880000D03*
%TO.P,J1,3*%
%TO.N,/VGG*%
X-318500000Y541420000D03*
%TO.P,J1,2*%
%TO.N,/+5V*%
X-318500000Y543960000D03*
D18*
%TO.P,J1,1*%
%TO.N,/LS1*%
X-318500000Y546500000D03*
%TD*%
D17*
%TO.P,J2,11*%
%TO.N,/IB5*%
X-323500000Y521100000D03*
%TO.P,J2,10*%
%TO.N,/IB6*%
X-323500000Y523640000D03*
%TO.P,J2,9*%
%TO.N,/IB7*%
X-323500000Y526180000D03*
%TO.P,J2,8*%
%TO.N,/IB8*%
X-323500000Y528720000D03*
%TO.P,J2,7*%
%TO.N,/Xout*%
X-323500000Y531260000D03*
%TO.P,J2,6*%
%TO.N,/Xin*%
X-323500000Y533800000D03*
%TO.P,J2,5*%
%TO.N,/FO2*%
X-323500000Y536340000D03*
%TO.P,J2,4*%
%TO.N,/FO1*%
X-323500000Y538880000D03*
%TO.P,J2,3*%
%TO.N,/VGG*%
X-323500000Y541420000D03*
%TO.P,J2,2*%
%TO.N,/+5V*%
X-323500000Y543960000D03*
D18*
%TO.P,J2,1*%
%TO.N,/LS1*%
X-323500000Y546500000D03*
%TD*%
D17*
%TO.P,J3,5*%
%TO.N,/VGG*%
X-331340000Y553000000D03*
%TO.P,J3,4*%
%TO.N,Net-(J3-Pad4)*%
X-333880000Y553000000D03*
%TO.P,J3,3*%
%TO.N,Net-(J3-Pad3)*%
X-336420000Y553000000D03*
%TO.P,J3,2*%
%TO.N,Net-(J3-Pad2)*%
X-338960000Y553000000D03*
D18*
%TO.P,J3,1*%
%TO.N,/+5V*%
X-341500000Y553000000D03*
%TD*%
D19*
%TO.P,J4,3*%
%TO.N,Net-(C3-Pad1)*%
X-345500000Y529000000D03*
%TO.P,J4,11*%
%TO.N,Net-(J4-Pad11)*%
X-345500000Y526500000D03*
%TO.P,J4,10*%
%TO.N,Net-(J4-Pad10)*%
X-345500000Y521500000D03*
%TO.P,J4,2*%
%TO.N,Net-(C2-Pad1)*%
X-345500000Y519000000D03*
D20*
%TO.P,J4,1*%
%TO.N,/+5V*%
X-350500000Y524000000D03*
%TD*%
%TO.P,R1,2*%
%TO.N,/Xin*%
%TA.AperFunction,SMDPad,CuDef*%
G36*
G01*
X-329650000Y528762500D02*
X-329650000Y529237500D01*
G75*
G02*
X-329412500Y529475000I237500J0D01*
G01*
X-328837500Y529475000D01*
G75*
G02*
X-328600000Y529237500I0J-237500D01*
G01*
X-328600000Y528762500D01*
G75*
G02*
X-328837500Y528525000I-237500J0D01*
G01*
X-329412500Y528525000D01*
G75*
G02*
X-329650000Y528762500I0J237500D01*
G01*
G37*
%TD.AperFunction*%
%TO.P,R1,1*%
%TO.N,Net-(C2-Pad2)*%
%TA.AperFunction,SMDPad,CuDef*%
G36*
G01*
X-331400000Y528762500D02*
X-331400000Y529237500D01*
G75*
G02*
X-331162500Y529475000I237500J0D01*
G01*
X-330587500Y529475000D01*
G75*
G02*
X-330350000Y529237500I0J-237500D01*
G01*
X-330350000Y528762500D01*
G75*
G02*
X-330587500Y528525000I-237500J0D01*
G01*
X-331162500Y528525000D01*
G75*
G02*
X-331400000Y528762500I0J237500D01*
G01*
G37*
%TD.AperFunction*%
%TD*%
%TO.P,R2,1*%
%TO.N,Net-(C1-Pad2)*%
%TA.AperFunction,SMDPad,CuDef*%
G36*
G01*
X-331400000Y521262500D02*
X-331400000Y521737500D01*
G75*
G02*
X-331162500Y521975000I237500J0D01*
G01*
X-330587500Y521975000D01*
G75*
G02*
X-330350000Y521737500I0J-237500D01*
G01*
X-330350000Y521262500D01*
G75*
G02*
X-330587500Y521025000I-237500J0D01*
G01*
X-331162500Y521025000D01*
G75*
G02*
X-331400000Y521262500I0J237500D01*
G01*
G37*
%TD.AperFunction*%
%TO.P,R2,2*%
%TO.N,/Xout*%
%TA.AperFunction,SMDPad,CuDef*%
G36*
G01*
X-329650000Y521262500D02*
X-329650000Y521737500D01*
G75*
G02*
X-329412500Y521975000I237500J0D01*
G01*
X-328837500Y521975000D01*
G75*
G02*
X-328600000Y521737500I0J-237500D01*
G01*
X-328600000Y521262500D01*
G75*
G02*
X-328837500Y521025000I-237500J0D01*
G01*
X-329412500Y521025000D01*
G75*
G02*
X-329650000Y521262500I0J237500D01*
G01*
G37*
%TD.AperFunction*%
%TD*%
%TO.P,R3,2*%
%TO.N,/+5V*%
%TA.AperFunction,SMDPad,CuDef*%
G36*
G01*
X-347350000Y533237500D02*
X-347350000Y532762500D01*
G75*
G02*
X-347587500Y532525000I-237500J0D01*
G01*
X-348162500Y532525000D01*
G75*
G02*
X-348400000Y532762500I0J237500D01*
G01*
X-348400000Y533237500D01*
G75*
G02*
X-348162500Y533475000I237500J0D01*
G01*
X-347587500Y533475000D01*
G75*
G02*
X-347350000Y533237500I0J-237500D01*
G01*
G37*
%TD.AperFunction*%
%TO.P,R3,1*%
%TO.N,Net-(C3-Pad1)*%
%TA.AperFunction,SMDPad,CuDef*%
G36*
G01*
X-345600000Y533237500D02*
X-345600000Y532762500D01*
G75*
G02*
X-345837500Y532525000I-237500J0D01*
G01*
X-346412500Y532525000D01*
G75*
G02*
X-346650000Y532762500I0J237500D01*
G01*
X-346650000Y533237500D01*
G75*
G02*
X-346412500Y533475000I237500J0D01*
G01*
X-345837500Y533475000D01*
G75*
G02*
X-345600000Y533237500I0J-237500D01*
G01*
G37*
%TD.AperFunction*%
%TD*%
%TO.P,R4,1*%
%TO.N,Net-(C2-Pad1)*%
%TA.AperFunction,SMDPad,CuDef*%
G36*
G01*
X-345600000Y538737500D02*
X-345600000Y538262500D01*
G75*
G02*
X-345837500Y538025000I-237500J0D01*
G01*
X-346412500Y538025000D01*
G75*
G02*
X-346650000Y538262500I0J237500D01*
G01*
X-346650000Y538737500D01*
G75*
G02*
X-346412500Y538975000I237500J0D01*
G01*
X-345837500Y538975000D01*
G75*
G02*
X-345600000Y538737500I0J-237500D01*
G01*
G37*
%TD.AperFunction*%
%TO.P,R4,2*%
%TO.N,/+5V*%
%TA.AperFunction,SMDPad,CuDef*%
G36*
G01*
X-347350000Y538737500D02*
X-347350000Y538262500D01*
G75*
G02*
X-347587500Y538025000I-237500J0D01*
G01*
X-348162500Y538025000D01*
G75*
G02*
X-348400000Y538262500I0J237500D01*
G01*
X-348400000Y538737500D01*
G75*
G02*
X-348162500Y538975000I237500J0D01*
G01*
X-347587500Y538975000D01*
G75*
G02*
X-347350000Y538737500I0J-237500D01*
G01*
G37*
%TD.AperFunction*%
%TD*%
D21*
%TO.N,Net-(C1-Pad2)*%
X-334500000Y521500000D02*
X-330875000Y521500000D01*
X-334500000Y521500000D02*
X-336500000Y521500000D01*
X-336500000Y543000000D02*
X-334500000Y545000000D01*
X-336500000Y521500000D02*
X-336500000Y543000000D01*
X-334500000Y525000000D02*
X-334500000Y521500000D01*
%TO.N,Net-(C2-Pad1)*%
X-337700010Y527200010D02*
X-337700010Y520799990D01*
X-339500000Y529000000D02*
X-337700010Y527200010D01*
X-339500000Y519000000D02*
X-345500000Y519000000D01*
X-337700010Y520799990D02*
X-339500000Y519000000D01*
X-339500000Y537000000D02*
X-339500000Y529000000D01*
X-339500000Y537500000D02*
X-339500000Y537000000D01*
X-343000000Y541000000D02*
X-339500000Y537500000D01*
X-346125000Y538500000D02*
X-343500000Y538500000D01*
X-343500000Y540500000D02*
X-343000000Y541000000D01*
X-343500000Y538500000D02*
X-343500000Y540500000D01*
%TO.N,Net-(C2-Pad2)*%
X-334500000Y529000000D02*
X-330875000Y529000000D01*
X-334500000Y529000000D02*
X-334500000Y533000000D01*
%TO.N,Net-(C3-Pad1)*%
X-339500000Y521500000D02*
X-339500000Y525500000D01*
X-343000000Y529000000D02*
X-345500000Y529000000D01*
X-339500000Y525500000D02*
X-343000000Y529000000D01*
X-345500000Y529000000D02*
X-345500000Y530500000D01*
X-342880000Y533120000D02*
X-342880000Y535500000D01*
X-345500000Y530500000D02*
X-342880000Y533120000D01*
X-346125000Y533000000D02*
X-346125000Y533375000D01*
X-344000000Y535500000D02*
X-342880000Y535500000D01*
X-346125000Y533375000D02*
X-344000000Y535500000D01*
D22*
%TO.N,Net-(J3-Pad2)*%
X-350037500Y549150000D02*
X-339350000Y549150000D01*
X-338960000Y549540000D02*
X-338960000Y553000000D01*
X-339350000Y549150000D02*
X-338960000Y549540000D01*
%TO.N,Net-(J3-Pad3)*%
X-336420000Y549080000D02*
X-336420000Y553000000D01*
X-337000000Y548500000D02*
X-336420000Y549080000D01*
X-350037500Y548500000D02*
X-337000000Y548500000D01*
%TO.N,Net-(J3-Pad4)*%
X-350037500Y547850000D02*
X-334650000Y547850000D01*
X-333880000Y548620000D02*
X-333880000Y553000000D01*
X-334650000Y547850000D02*
X-333880000Y548620000D01*
%TO.N,/+5V*%
X-350037500Y549800000D02*
X-341700000Y549800000D01*
X-341500000Y550000000D02*
X-341500000Y553000000D01*
X-341700000Y549800000D02*
X-341500000Y550000000D01*
D21*
X-339500000Y545000000D02*
X-346000000Y545000000D01*
X-347875000Y543125000D02*
X-347875000Y541000000D01*
X-346000000Y545000000D02*
X-347875000Y543125000D01*
X-347875000Y541000000D02*
X-347875000Y535500000D01*
X-318500000Y543960000D02*
X-323500000Y543960000D01*
X-350620000Y541000000D02*
X-347875000Y541000000D01*
X-350500000Y535500000D02*
X-347875000Y535500000D01*
X-349000000Y525500000D02*
X-350500000Y524000000D01*
X-347875000Y535500000D02*
X-347875000Y533000000D01*
X-347875000Y526625000D02*
X-350500000Y524000000D01*
X-347875000Y533000000D02*
X-347875000Y526625000D01*
%TO.N,/LS1*%
X-318500000Y546500000D02*
X-323500000Y546500000D01*
X-325000000Y546500000D02*
X-334500000Y537000000D01*
X-323500000Y546500000D02*
X-325000000Y546500000D01*
%TO.N,/IB5*%
X-323500000Y521100000D02*
X-318500000Y521100000D01*
%TO.N,/IB6*%
X-323500000Y523640000D02*
X-318500000Y523640000D01*
%TO.N,/IB7*%
X-318500000Y526180000D02*
X-323500000Y526180000D01*
%TO.N,/IB8*%
X-323500000Y528720000D02*
X-318500000Y528720000D01*
%TO.N,/Xout*%
X-323500000Y531260000D02*
X-324740000Y531260000D01*
X-323500000Y531260000D02*
X-318500000Y531260000D01*
D22*
X-324740000Y531260000D02*
X-325240000Y531260000D01*
X-326880000Y525000000D02*
X-326880000Y522620000D01*
D21*
X-325240000Y531260000D02*
X-325750000Y530750000D01*
X-323500000Y531260000D02*
X-325240000Y531260000D01*
D22*
X-325750000Y530750000D02*
X-326000000Y530500000D01*
D21*
X-326000000Y525880000D02*
X-326880000Y525000000D01*
X-326000000Y530500000D02*
X-326000000Y525880000D01*
X-326000000Y530500000D02*
X-325240000Y531260000D01*
X-328000000Y521500000D02*
X-329125000Y521500000D01*
X-326880000Y522620000D02*
X-328000000Y521500000D01*
%TO.N,/Xin*%
X-323500000Y533800000D02*
X-318500000Y533800000D01*
X-326080000Y533800000D02*
X-326880000Y533000000D01*
X-323500000Y533800000D02*
X-326080000Y533800000D01*
X-326880000Y533000000D02*
X-326880000Y530620000D01*
X-326880000Y530620000D02*
X-328500000Y529000000D01*
X-328500000Y529000000D02*
X-328300000Y529000000D01*
X-329125000Y529000000D02*
X-328500000Y529000000D01*
%TO.N,/FO2*%
X-323500000Y536340000D02*
X-318500000Y536340000D01*
%TO.N,/FO1*%
X-323500000Y538880000D02*
X-318500000Y538880000D01*
%TO.N,/VGG*%
X-317920000Y541420000D02*
X-318500000Y541420000D01*
D22*
X-352737500Y551400000D02*
X-352737500Y549500000D01*
X-352737500Y547500000D02*
X-352737500Y545000000D01*
D21*
X-352700000Y551875000D02*
X-352700000Y545125000D01*
X-351012500Y551875000D02*
X-350125000Y550987500D01*
X-352700000Y551875000D02*
X-351012500Y551875000D01*
X-351812500Y546012500D02*
X-352700000Y545125000D01*
X-350125000Y546012500D02*
X-351812500Y546012500D01*
X-350125000Y546012500D02*
X-350125000Y546875000D01*
X-349887499Y546250001D02*
X-347749999Y546250001D01*
X-350125000Y546012500D02*
X-349887499Y546250001D01*
X-347749999Y546250001D02*
X-347000000Y547000000D01*
X-347000000Y547000000D02*
X-332500000Y547000000D01*
X-331340000Y548160000D02*
X-331340000Y553000000D01*
X-332500000Y547000000D02*
X-331340000Y548160000D01*
D22*
X-323500000Y541420000D02*
X-319580000Y541420000D01*
D21*
X-319580000Y541420000D02*
X-317920000Y541420000D01*
D22*
X-330340000Y552000000D02*
X-331340000Y553000000D01*
X-316500000Y542500000D02*
X-316500000Y550000000D01*
X-317000000Y542000000D02*
X-316500000Y542500000D01*
X-318720998Y542000000D02*
X-317000000Y542000000D01*
X-319300998Y541420000D02*
X-318720998Y542000000D01*
X-318500000Y552000000D02*
X-330340000Y552000000D01*
X-316500000Y550000000D02*
X-318500000Y552000000D01*
X-323500000Y541420000D02*
X-319300998Y541420000D01*
%TD*%
D23*
%TO.N,/VGG*%
X-315642499Y510642500D02*
X-354357500Y510642500D01*
X-354357500Y514170883D01*
X-352235000Y514170883D01*
X-352235000Y513829117D01*
X-352168325Y513493919D01*
X-352037537Y513178169D01*
X-351847663Y512894002D01*
X-351605998Y512652337D01*
X-351321831Y512462463D01*
X-351006081Y512331675D01*
X-350670883Y512265000D01*
X-350329117Y512265000D01*
X-349993919Y512331675D01*
X-349678169Y512462463D01*
X-349394002Y512652337D01*
X-349152337Y512894002D01*
X-348962463Y513178169D01*
X-348831675Y513493919D01*
X-348765000Y513829117D01*
X-348765000Y514170883D01*
X-320735000Y514170883D01*
X-320735000Y513829117D01*
X-320668325Y513493919D01*
X-320537537Y513178169D01*
X-320347663Y512894002D01*
X-320105998Y512652337D01*
X-319821831Y512462463D01*
X-319506081Y512331675D01*
X-319170883Y512265000D01*
X-318829117Y512265000D01*
X-318493919Y512331675D01*
X-318178169Y512462463D01*
X-317894002Y512652337D01*
X-317652337Y512894002D01*
X-317462463Y513178169D01*
X-317331675Y513493919D01*
X-317265000Y513829117D01*
X-317265000Y514170883D01*
X-317331675Y514506081D01*
X-317462463Y514821831D01*
X-317652337Y515105998D01*
X-317894002Y515347663D01*
X-318178169Y515537537D01*
X-318493919Y515668325D01*
X-318829117Y515735000D01*
X-319170883Y515735000D01*
X-319506081Y515668325D01*
X-319821831Y515537537D01*
X-320105998Y515347663D01*
X-320347663Y515105998D01*
X-320537537Y514821831D01*
X-320668325Y514506081D01*
X-320735000Y514170883D01*
X-348765000Y514170883D01*
X-348831675Y514506081D01*
X-348962463Y514821831D01*
X-349152337Y515105998D01*
X-349394002Y515347663D01*
X-349678169Y515537537D01*
X-349993919Y515668325D01*
X-350329117Y515735000D01*
X-350670883Y515735000D01*
X-351006081Y515668325D01*
X-351321831Y515537537D01*
X-351605998Y515347663D01*
X-351847663Y515105998D01*
X-352037537Y514821831D01*
X-352168325Y514506081D01*
X-352235000Y514170883D01*
X-354357500Y514170883D01*
X-354357500Y518031557D01*
X-354360000Y518056940D01*
X-354360000Y519121637D01*
X-354235000Y519121637D01*
X-354235000Y518878363D01*
X-354187540Y518639764D01*
X-354094443Y518415008D01*
X-353959287Y518212733D01*
X-353787267Y518040713D01*
X-353584992Y517905557D01*
X-353360236Y517812460D01*
X-353121637Y517765000D01*
X-352878363Y517765000D01*
X-352639764Y517812460D01*
X-352415008Y517905557D01*
X-352212733Y518040713D01*
X-352040713Y518212733D01*
X-351905557Y518415008D01*
X-351812460Y518639764D01*
X-351765000Y518878363D01*
X-351765000Y519121637D01*
X-351735000Y519121637D01*
X-351735000Y518878363D01*
X-351687540Y518639764D01*
X-351594443Y518415008D01*
X-351459287Y518212733D01*
X-351287267Y518040713D01*
X-351084992Y517905557D01*
X-350860236Y517812460D01*
X-350621637Y517765000D01*
X-350378363Y517765000D01*
X-350139764Y517812460D01*
X-349915008Y517905557D01*
X-349712733Y518040713D01*
X-349540713Y518212733D01*
X-349405557Y518415008D01*
X-349312460Y518639764D01*
X-349265000Y518878363D01*
X-349265000Y519121637D01*
X-349312460Y519360236D01*
X-349405557Y519584992D01*
X-349540713Y519787267D01*
X-349712733Y519959287D01*
X-349915008Y520094443D01*
X-350139764Y520187540D01*
X-350378363Y520235000D01*
X-350621637Y520235000D01*
X-350860236Y520187540D01*
X-351084992Y520094443D01*
X-351287267Y519959287D01*
X-351459287Y519787267D01*
X-351594443Y519584992D01*
X-351687540Y519360236D01*
X-351735000Y519121637D01*
X-351765000Y519121637D01*
X-351812460Y519360236D01*
X-351905557Y519584992D01*
X-352040713Y519787267D01*
X-352212733Y519959287D01*
X-352415008Y520094443D01*
X-352639764Y520187540D01*
X-352878363Y520235000D01*
X-353121637Y520235000D01*
X-353360236Y520187540D01*
X-353584992Y520094443D01*
X-353787267Y519959287D01*
X-353959287Y519787267D01*
X-354094443Y519584992D01*
X-354187540Y519360236D01*
X-354235000Y519121637D01*
X-354360000Y519121637D01*
X-354360000Y521360000D01*
X-353831434Y521360000D01*
X-353800000Y521356904D01*
X-353768566Y521360000D01*
X-353674538Y521369261D01*
X-353553898Y521405857D01*
X-353442715Y521465285D01*
X-353345262Y521545262D01*
X-353265285Y521642715D01*
X-353205857Y521753898D01*
X-353169261Y521874538D01*
X-353156904Y522000000D01*
X-353160000Y522031434D01*
X-353160000Y525968566D01*
X-353156904Y526000000D01*
X-353169261Y526125462D01*
X-353205857Y526246102D01*
X-353265285Y526357285D01*
X-353345262Y526454738D01*
X-353442715Y526534715D01*
X-353553898Y526594143D01*
X-353674538Y526630739D01*
X-353768566Y526640000D01*
X-353800000Y526643096D01*
X-353831434Y526640000D01*
X-354360000Y526640000D01*
X-354360000Y529121637D01*
X-354235000Y529121637D01*
X-354235000Y528878363D01*
X-354187540Y528639764D01*
X-354094443Y528415008D01*
X-353959287Y528212733D01*
X-353787267Y528040713D01*
X-353584992Y527905557D01*
X-353360236Y527812460D01*
X-353121637Y527765000D01*
X-352878363Y527765000D01*
X-352639764Y527812460D01*
X-352415008Y527905557D01*
X-352212733Y528040713D01*
X-352040713Y528212733D01*
X-351905557Y528415008D01*
X-351812460Y528639764D01*
X-351765000Y528878363D01*
X-351765000Y529121637D01*
X-351735000Y529121637D01*
X-351735000Y528878363D01*
X-351687540Y528639764D01*
X-351594443Y528415008D01*
X-351459287Y528212733D01*
X-351287267Y528040713D01*
X-351084992Y527905557D01*
X-350860236Y527812460D01*
X-350621637Y527765000D01*
X-350378363Y527765000D01*
X-350139764Y527812460D01*
X-349915008Y527905557D01*
X-349712733Y528040713D01*
X-349540713Y528212733D01*
X-349405557Y528415008D01*
X-349312460Y528639764D01*
X-349265000Y528878363D01*
X-349265000Y529121637D01*
X-349312460Y529360236D01*
X-349405557Y529584992D01*
X-349540713Y529787267D01*
X-349712733Y529959287D01*
X-349915008Y530094443D01*
X-350139764Y530187540D01*
X-350378363Y530235000D01*
X-350621637Y530235000D01*
X-350860236Y530187540D01*
X-351084992Y530094443D01*
X-351287267Y529959287D01*
X-351459287Y529787267D01*
X-351594443Y529584992D01*
X-351687540Y529360236D01*
X-351735000Y529121637D01*
X-351765000Y529121637D01*
X-351812460Y529360236D01*
X-351905557Y529584992D01*
X-352040713Y529787267D01*
X-352212733Y529959287D01*
X-352415008Y530094443D01*
X-352639764Y530187540D01*
X-352878363Y530235000D01*
X-353121637Y530235000D01*
X-353360236Y530187540D01*
X-353584992Y530094443D01*
X-353787267Y529959287D01*
X-353959287Y529787267D01*
X-354094443Y529584992D01*
X-354187540Y529360236D01*
X-354235000Y529121637D01*
X-354360000Y529121637D01*
X-354360000Y529943060D01*
X-354357500Y529968443D01*
X-354357500Y541141335D01*
X-352055000Y541141335D01*
X-352055000Y540858665D01*
X-351999853Y540581426D01*
X-351891680Y540320273D01*
X-351734637Y540085241D01*
X-351534759Y539885363D01*
X-351299727Y539728320D01*
X-351038574Y539620147D01*
X-350761335Y539565000D01*
X-350478665Y539565000D01*
X-350201426Y539620147D01*
X-349940273Y539728320D01*
X-349705241Y539885363D01*
X-349505363Y540085241D01*
X-349485479Y540115000D01*
X-348760000Y540115000D01*
X-348760000Y539374369D01*
X-348781623Y539356623D01*
X-348890512Y539223942D01*
X-348971423Y539072567D01*
X-349021248Y538908316D01*
X-349038072Y538737500D01*
X-349038072Y538262500D01*
X-349021248Y538091684D01*
X-348971423Y537927433D01*
X-348890512Y537776058D01*
X-348781623Y537643377D01*
X-348759999Y537625631D01*
X-348759999Y536385000D01*
X-349365479Y536385000D01*
X-349385363Y536414759D01*
X-349585241Y536614637D01*
X-349820273Y536771680D01*
X-350081426Y536879853D01*
X-350358665Y536935000D01*
X-350641335Y536935000D01*
X-350918574Y536879853D01*
X-351179727Y536771680D01*
X-351414759Y536614637D01*
X-351614637Y536414759D01*
X-351771680Y536179727D01*
X-351879853Y535918574D01*
X-351935000Y535641335D01*
X-351935000Y535358665D01*
X-351879853Y535081426D01*
X-351771680Y534820273D01*
X-351614637Y534585241D01*
X-351414759Y534385363D01*
X-351179727Y534228320D01*
X-350918574Y534120147D01*
X-350641335Y534065000D01*
X-350358665Y534065000D01*
X-350081426Y534120147D01*
X-349820273Y534228320D01*
X-349585241Y534385363D01*
X-349385363Y534585241D01*
X-349365479Y534615000D01*
X-348760000Y534615000D01*
X-348759999Y533874369D01*
X-348781623Y533856623D01*
X-348890512Y533723942D01*
X-348971423Y533572567D01*
X-349021248Y533408316D01*
X-349038072Y533237500D01*
X-349038072Y532762500D01*
X-349021248Y532591684D01*
X-348971423Y532427433D01*
X-348890512Y532276058D01*
X-348781623Y532143377D01*
X-348760000Y532125631D01*
X-348759999Y526991580D01*
X-349595047Y526156532D01*
X-349936953Y525814625D01*
X-350004336Y525850642D01*
X-350247313Y525924348D01*
X-350500000Y525949236D01*
X-350752688Y525924348D01*
X-350995665Y525850642D01*
X-351219595Y525730949D01*
X-351415870Y525569870D01*
X-351576949Y525373594D01*
X-351696642Y525149664D01*
X-351770348Y524906687D01*
X-351789000Y524717313D01*
X-351789000Y523282686D01*
X-351770348Y523093312D01*
X-351696642Y522850335D01*
X-351576948Y522626405D01*
X-351415869Y522430130D01*
X-351219594Y522269051D01*
X-350995664Y522149358D01*
X-350752687Y522075652D01*
X-350500000Y522050764D01*
X-350247312Y522075652D01*
X-350004335Y522149358D01*
X-349780405Y522269051D01*
X-349584130Y522430130D01*
X-349423051Y522626405D01*
X-349303358Y522850335D01*
X-349229652Y523093312D01*
X-349211000Y523282686D01*
X-349211000Y524037422D01*
X-348343468Y524904953D01*
X-347313526Y525934895D01*
X-347230949Y525780405D01*
X-347069870Y525584130D01*
X-346873595Y525423051D01*
X-346649665Y525303358D01*
X-346406688Y525229652D01*
X-346217314Y525211000D01*
X-345742294Y525211000D01*
X-345860236Y525187540D01*
X-346084992Y525094443D01*
X-346287267Y524959287D01*
X-346459287Y524787267D01*
X-346594443Y524584992D01*
X-346687540Y524360236D01*
X-346735000Y524121637D01*
X-346735000Y523878363D01*
X-346687540Y523639764D01*
X-346594443Y523415008D01*
X-346459287Y523212733D01*
X-346287267Y523040713D01*
X-346084992Y522905557D01*
X-345860236Y522812460D01*
X-345742294Y522789000D01*
X-346217314Y522789000D01*
X-346406688Y522770348D01*
X-346649665Y522696642D01*
X-346873595Y522576949D01*
X-347069870Y522415870D01*
X-347230949Y522219595D01*
X-347350642Y521995665D01*
X-347424348Y521752688D01*
X-347449236Y521500000D01*
X-347424348Y521247312D01*
X-347350642Y521004335D01*
X-347230949Y520780405D01*
X-347069870Y520584130D01*
X-346873595Y520423051D01*
X-346649665Y520303358D01*
X-346473767Y520250000D01*
X-346649665Y520196642D01*
X-346873595Y520076949D01*
X-347069870Y519915870D01*
X-347230949Y519719595D01*
X-347350642Y519495665D01*
X-347424348Y519252688D01*
X-347449236Y519000000D01*
X-347424348Y518747312D01*
X-347350642Y518504335D01*
X-347230949Y518280405D01*
X-347069870Y518084130D01*
X-346873595Y517923051D01*
X-346649665Y517803358D01*
X-346406688Y517729652D01*
X-346217314Y517711000D01*
X-344782686Y517711000D01*
X-344593312Y517729652D01*
X-344350335Y517803358D01*
X-344126405Y517923051D01*
X-343930130Y518084130D01*
X-343904796Y518115000D01*
X-339543469Y518115000D01*
X-339500000Y518110719D01*
X-339456531Y518115000D01*
X-339456523Y518115000D01*
X-339326510Y518127805D01*
X-339159687Y518178411D01*
X-339005941Y518260589D01*
X-338871183Y518371183D01*
X-338843466Y518404956D01*
X-337104961Y520143460D01*
X-337071193Y520171173D01*
X-337038507Y520211000D01*
X-336960600Y520305930D01*
X-336931384Y520360589D01*
X-336878421Y520459677D01*
X-336827815Y520626500D01*
X-336823213Y520673224D01*
X-336673490Y520627805D01*
X-336500000Y520610718D01*
X-336456524Y520615000D01*
X-335634521Y520615000D01*
X-335614637Y520585241D01*
X-335414759Y520385363D01*
X-335179727Y520228320D01*
X-334918574Y520120147D01*
X-334641335Y520065000D01*
X-334358665Y520065000D01*
X-334081426Y520120147D01*
X-333820273Y520228320D01*
X-333585241Y520385363D01*
X-333385363Y520585241D01*
X-333365479Y520615000D01*
X-331747046Y520615000D01*
X-331648942Y520534488D01*
X-331497567Y520453577D01*
X-331333316Y520403752D01*
X-331162500Y520386928D01*
X-330587500Y520386928D01*
X-330416684Y520403752D01*
X-330252433Y520453577D01*
X-330101058Y520534488D01*
X-330000000Y520617425D01*
X-329898942Y520534488D01*
X-329747567Y520453577D01*
X-329583316Y520403752D01*
X-329412500Y520386928D01*
X-328837500Y520386928D01*
X-328666684Y520403752D01*
X-328502433Y520453577D01*
X-328351058Y520534488D01*
X-328252954Y520615000D01*
X-328043469Y520615000D01*
X-328000000Y520610719D01*
X-327956531Y520615000D01*
X-327956523Y520615000D01*
X-327826510Y520627805D01*
X-327659687Y520678411D01*
X-327505941Y520760589D01*
X-327371183Y520871183D01*
X-327343466Y520904956D01*
X-326223468Y522024953D01*
X-326140590Y522125940D01*
X-326058412Y522279686D01*
X-326007806Y522446509D01*
X-325990719Y522619999D01*
X-326007806Y522793489D01*
X-326058412Y522960313D01*
X-326120000Y523075537D01*
X-326120000Y523781957D01*
X-325965241Y523885363D01*
X-325765363Y524085241D01*
X-325608320Y524320273D01*
X-325500147Y524581426D01*
X-325445000Y524858665D01*
X-325445000Y525141335D01*
X-325451983Y525176439D01*
X-325404951Y525223470D01*
X-325371183Y525251183D01*
X-325328363Y525303358D01*
X-325260589Y525385941D01*
X-325249944Y525405857D01*
X-325178411Y525539687D01*
X-325135930Y525679727D01*
X-325127805Y525706509D01*
X-325123620Y525749003D01*
X-325115000Y525836523D01*
X-325115000Y525836531D01*
X-325110719Y525880000D01*
X-325115000Y525923469D01*
X-325115000Y530133422D01*
X-324873421Y530375000D01*
X-324694656Y530375000D01*
X-324653475Y530313368D01*
X-324446632Y530106525D01*
X-324272240Y529990000D01*
X-324446632Y529873475D01*
X-324653475Y529666632D01*
X-324815990Y529423411D01*
X-324927932Y529153158D01*
X-324985000Y528866260D01*
X-324985000Y528573740D01*
X-324927932Y528286842D01*
X-324815990Y528016589D01*
X-324653475Y527773368D01*
X-324446632Y527566525D01*
X-324272240Y527450000D01*
X-324446632Y527333475D01*
X-324653475Y527126632D01*
X-324815990Y526883411D01*
X-324927932Y526613158D01*
X-324985000Y526326260D01*
X-324985000Y526033740D01*
X-324927932Y525746842D01*
X-324815990Y525476589D01*
X-324653475Y525233368D01*
X-324446632Y525026525D01*
X-324272240Y524910000D01*
X-324446632Y524793475D01*
X-324653475Y524586632D01*
X-324815990Y524343411D01*
X-324927932Y524073158D01*
X-324985000Y523786260D01*
X-324985000Y523493740D01*
X-324927932Y523206842D01*
X-324815990Y522936589D01*
X-324653475Y522693368D01*
X-324446632Y522486525D01*
X-324272240Y522370000D01*
X-324446632Y522253475D01*
X-324653475Y522046632D01*
X-324815990Y521803411D01*
X-324927932Y521533158D01*
X-324985000Y521246260D01*
X-324985000Y520953740D01*
X-324927932Y520666842D01*
X-324815990Y520396589D01*
X-324653475Y520153368D01*
X-324446632Y519946525D01*
X-324203411Y519784010D01*
X-323933158Y519672068D01*
X-323646260Y519615000D01*
X-323353740Y519615000D01*
X-323066842Y519672068D01*
X-322796589Y519784010D01*
X-322553368Y519946525D01*
X-322346525Y520153368D01*
X-322305344Y520215000D01*
X-319694656Y520215000D01*
X-319653475Y520153368D01*
X-319446632Y519946525D01*
X-319203411Y519784010D01*
X-318933158Y519672068D01*
X-318646260Y519615000D01*
X-318353740Y519615000D01*
X-318066842Y519672068D01*
X-317796589Y519784010D01*
X-317553368Y519946525D01*
X-317346525Y520153368D01*
X-317184010Y520396589D01*
X-317072068Y520666842D01*
X-317015000Y520953740D01*
X-317015000Y521246260D01*
X-317072068Y521533158D01*
X-317184010Y521803411D01*
X-317346525Y522046632D01*
X-317553368Y522253475D01*
X-317727760Y522370000D01*
X-317553368Y522486525D01*
X-317346525Y522693368D01*
X-317184010Y522936589D01*
X-317072068Y523206842D01*
X-317015000Y523493740D01*
X-317015000Y523786260D01*
X-317072068Y524073158D01*
X-317184010Y524343411D01*
X-317346525Y524586632D01*
X-317553368Y524793475D01*
X-317727760Y524910000D01*
X-317553368Y525026525D01*
X-317346525Y525233368D01*
X-317184010Y525476589D01*
X-317072068Y525746842D01*
X-317015000Y526033740D01*
X-317015000Y526326260D01*
X-317072068Y526613158D01*
X-317184010Y526883411D01*
X-317346525Y527126632D01*
X-317553368Y527333475D01*
X-317727760Y527450000D01*
X-317553368Y527566525D01*
X-317346525Y527773368D01*
X-317184010Y528016589D01*
X-317072068Y528286842D01*
X-317015000Y528573740D01*
X-317015000Y528866260D01*
X-317072068Y529153158D01*
X-317184010Y529423411D01*
X-317346525Y529666632D01*
X-317553368Y529873475D01*
X-317727760Y529990000D01*
X-317553368Y530106525D01*
X-317346525Y530313368D01*
X-317184010Y530556589D01*
X-317072068Y530826842D01*
X-317015000Y531113740D01*
X-317015000Y531406260D01*
X-317072068Y531693158D01*
X-317184010Y531963411D01*
X-317346525Y532206632D01*
X-317553368Y532413475D01*
X-317727760Y532530000D01*
X-317553368Y532646525D01*
X-317346525Y532853368D01*
X-317184010Y533096589D01*
X-317072068Y533366842D01*
X-317015000Y533653740D01*
X-317015000Y533946260D01*
X-317072068Y534233158D01*
X-317184010Y534503411D01*
X-317346525Y534746632D01*
X-317553368Y534953475D01*
X-317727760Y535070000D01*
X-317553368Y535186525D01*
X-317346525Y535393368D01*
X-317184010Y535636589D01*
X-317072068Y535906842D01*
X-317015000Y536193740D01*
X-317015000Y536486260D01*
X-317072068Y536773158D01*
X-317184010Y537043411D01*
X-317346525Y537286632D01*
X-317553368Y537493475D01*
X-317727760Y537610000D01*
X-317553368Y537726525D01*
X-317346525Y537933368D01*
X-317184010Y538176589D01*
X-317072068Y538446842D01*
X-317015000Y538733740D01*
X-317015000Y539026260D01*
X-317072068Y539313158D01*
X-317184010Y539583411D01*
X-317346525Y539826632D01*
X-317553368Y540033475D01*
X-317735534Y540155195D01*
X-317618645Y540224822D01*
X-317402412Y540419731D01*
X-317228359Y540653080D01*
X-317103175Y540915901D01*
X-317058524Y541063110D01*
X-317179845Y541293000D01*
X-318373000Y541293000D01*
X-318373000Y541273000D01*
X-318627000Y541273000D01*
X-318627000Y541293000D01*
X-319820155Y541293000D01*
X-319941476Y541063110D01*
X-319896825Y540915901D01*
X-319771641Y540653080D01*
X-319597588Y540419731D01*
X-319381355Y540224822D01*
X-319264466Y540155195D01*
X-319446632Y540033475D01*
X-319653475Y539826632D01*
X-319694656Y539765000D01*
X-322305344Y539765000D01*
X-322346525Y539826632D01*
X-322553368Y540033475D01*
X-322735534Y540155195D01*
X-322618645Y540224822D01*
X-322402412Y540419731D01*
X-322228359Y540653080D01*
X-322103175Y540915901D01*
X-322058524Y541063110D01*
X-322179845Y541293000D01*
X-323373000Y541293000D01*
X-323373000Y541273000D01*
X-323627000Y541273000D01*
X-323627000Y541293000D01*
X-324820155Y541293000D01*
X-324941476Y541063110D01*
X-324896825Y540915901D01*
X-324771641Y540653080D01*
X-324597588Y540419731D01*
X-324381355Y540224822D01*
X-324264466Y540155195D01*
X-324446632Y540033475D01*
X-324653475Y539826632D01*
X-324815990Y539583411D01*
X-324927932Y539313158D01*
X-324985000Y539026260D01*
X-324985000Y538733740D01*
X-324927932Y538446842D01*
X-324815990Y538176589D01*
X-324653475Y537933368D01*
X-324446632Y537726525D01*
X-324272240Y537610000D01*
X-324446632Y537493475D01*
X-324653475Y537286632D01*
X-324815990Y537043411D01*
X-324927932Y536773158D01*
X-324985000Y536486260D01*
X-324985000Y536193740D01*
X-324927932Y535906842D01*
X-324815990Y535636589D01*
X-324653475Y535393368D01*
X-324446632Y535186525D01*
X-324272240Y535070000D01*
X-324446632Y534953475D01*
X-324653475Y534746632D01*
X-324694656Y534685000D01*
X-326036531Y534685000D01*
X-326080000Y534689281D01*
X-326123469Y534685000D01*
X-326123477Y534685000D01*
X-326253490Y534672195D01*
X-326420313Y534621589D01*
X-326440651Y534610718D01*
X-326574059Y534539411D01*
X-326675047Y534456532D01*
X-326675049Y534456530D01*
X-326708576Y534429015D01*
X-326738665Y534435000D01*
X-327021335Y534435000D01*
X-327298574Y534379853D01*
X-327559727Y534271680D01*
X-327794759Y534114637D01*
X-327994637Y533914759D01*
X-328151680Y533679727D01*
X-328259853Y533418574D01*
X-328315000Y533141335D01*
X-328315000Y532858665D01*
X-328259853Y532581426D01*
X-328151680Y532320273D01*
X-327994637Y532085241D01*
X-327794759Y531885363D01*
X-327765000Y531865478D01*
X-327764999Y530986580D01*
X-328657973Y530093605D01*
X-328666684Y530096248D01*
X-328837500Y530113072D01*
X-329412500Y530113072D01*
X-329583316Y530096248D01*
X-329747567Y530046423D01*
X-329898942Y529965512D01*
X-330000000Y529882575D01*
X-330101058Y529965512D01*
X-330252433Y530046423D01*
X-330416684Y530096248D01*
X-330587500Y530113072D01*
X-331162500Y530113072D01*
X-331333316Y530096248D01*
X-331497567Y530046423D01*
X-331648942Y529965512D01*
X-331747046Y529885000D01*
X-333365479Y529885000D01*
X-333385363Y529914759D01*
X-333585241Y530114637D01*
X-333615000Y530134521D01*
X-333615000Y531865479D01*
X-333585241Y531885363D01*
X-333385363Y532085241D01*
X-333228320Y532320273D01*
X-333120147Y532581426D01*
X-333065000Y532858665D01*
X-333065000Y533141335D01*
X-333120147Y533418574D01*
X-333228320Y533679727D01*
X-333385363Y533914759D01*
X-333585241Y534114637D01*
X-333820273Y534271680D01*
X-334081426Y534379853D01*
X-334358665Y534435000D01*
X-334641335Y534435000D01*
X-334918574Y534379853D01*
X-335179727Y534271680D01*
X-335414759Y534114637D01*
X-335614637Y533914759D01*
X-335615000Y533914216D01*
X-335615000Y536085784D01*
X-335614637Y536085241D01*
X-335414759Y535885363D01*
X-335179727Y535728320D01*
X-334918574Y535620147D01*
X-334641335Y535565000D01*
X-334358665Y535565000D01*
X-334081426Y535620147D01*
X-333820273Y535728320D01*
X-333585241Y535885363D01*
X-333385363Y536085241D01*
X-333228320Y536320273D01*
X-333120147Y536581426D01*
X-333065000Y536858665D01*
X-333065000Y537141335D01*
X-333071983Y537176439D01*
X-324905748Y545342673D01*
X-324880537Y545295506D01*
X-324801185Y545198815D01*
X-324704494Y545119463D01*
X-324594180Y545060498D01*
X-324521620Y545038487D01*
X-324653475Y544906632D01*
X-324815990Y544663411D01*
X-324927932Y544393158D01*
X-324985000Y544106260D01*
X-324985000Y543813740D01*
X-324927932Y543526842D01*
X-324815990Y543256589D01*
X-324653475Y543013368D01*
X-324446632Y542806525D01*
X-324264466Y542684805D01*
X-324381355Y542615178D01*
X-324597588Y542420269D01*
X-324771641Y542186920D01*
X-324896825Y541924099D01*
X-324941476Y541776890D01*
X-324820155Y541547000D01*
X-323627000Y541547000D01*
X-323627000Y541567000D01*
X-323373000Y541567000D01*
X-323373000Y541547000D01*
X-322179845Y541547000D01*
X-322058524Y541776890D01*
X-322103175Y541924099D01*
X-322228359Y542186920D01*
X-322402412Y542420269D01*
X-322618645Y542615178D01*
X-322735534Y542684805D01*
X-322553368Y542806525D01*
X-322346525Y543013368D01*
X-322305344Y543075000D01*
X-319694656Y543075000D01*
X-319653475Y543013368D01*
X-319446632Y542806525D01*
X-319264466Y542684805D01*
X-319381355Y542615178D01*
X-319597588Y542420269D01*
X-319771641Y542186920D01*
X-319896825Y541924099D01*
X-319941476Y541776890D01*
X-319820155Y541547000D01*
X-318627000Y541547000D01*
X-318627000Y541567000D01*
X-318373000Y541567000D01*
X-318373000Y541547000D01*
X-317179845Y541547000D01*
X-317058524Y541776890D01*
X-317103175Y541924099D01*
X-317228359Y542186920D01*
X-317402412Y542420269D01*
X-317618645Y542615178D01*
X-317735534Y542684805D01*
X-317553368Y542806525D01*
X-317346525Y543013368D01*
X-317184010Y543256589D01*
X-317072068Y543526842D01*
X-317015000Y543813740D01*
X-317015000Y544106260D01*
X-317072068Y544393158D01*
X-317184010Y544663411D01*
X-317346525Y544906632D01*
X-317478380Y545038487D01*
X-317405820Y545060498D01*
X-317295506Y545119463D01*
X-317198815Y545198815D01*
X-317119463Y545295506D01*
X-317060498Y545405820D01*
X-317024188Y545525518D01*
X-317011928Y545650000D01*
X-317011928Y547350000D01*
X-317024188Y547474482D01*
X-317060498Y547594180D01*
X-317119463Y547704494D01*
X-317198815Y547801185D01*
X-317295506Y547880537D01*
X-317405820Y547939502D01*
X-317525518Y547975812D01*
X-317650000Y547988072D01*
X-319350000Y547988072D01*
X-319474482Y547975812D01*
X-319594180Y547939502D01*
X-319704494Y547880537D01*
X-319801185Y547801185D01*
X-319880537Y547704494D01*
X-319939502Y547594180D01*
X-319975812Y547474482D01*
X-319984625Y547385000D01*
X-322015375Y547385000D01*
X-322024188Y547474482D01*
X-322060498Y547594180D01*
X-322119463Y547704494D01*
X-322198815Y547801185D01*
X-322295506Y547880537D01*
X-322405820Y547939502D01*
X-322525518Y547975812D01*
X-322650000Y547988072D01*
X-324350000Y547988072D01*
X-324474482Y547975812D01*
X-324594180Y547939502D01*
X-324704494Y547880537D01*
X-324801185Y547801185D01*
X-324880537Y547704494D01*
X-324939502Y547594180D01*
X-324975812Y547474482D01*
X-324984355Y547387740D01*
X-325000000Y547389281D01*
X-325043469Y547385000D01*
X-325043477Y547385000D01*
X-325173490Y547372195D01*
X-325340313Y547321589D01*
X-325463889Y547255537D01*
X-325494059Y547239411D01*
X-325595047Y547156532D01*
X-325595049Y547156530D01*
X-325628817Y547128817D01*
X-325656530Y547095049D01*
X-334323561Y538428017D01*
X-334358665Y538435000D01*
X-334641335Y538435000D01*
X-334918574Y538379853D01*
X-335179727Y538271680D01*
X-335414759Y538114637D01*
X-335614637Y537914759D01*
X-335615000Y537914216D01*
X-335615000Y542633422D01*
X-334676439Y543571983D01*
X-334641335Y543565000D01*
X-334358665Y543565000D01*
X-334081426Y543620147D01*
X-333820273Y543728320D01*
X-333585241Y543885363D01*
X-333385363Y544085241D01*
X-333228320Y544320273D01*
X-333120147Y544581426D01*
X-333065000Y544858665D01*
X-333065000Y545141335D01*
X-333120147Y545418574D01*
X-333228320Y545679727D01*
X-333385363Y545914759D01*
X-333585241Y546114637D01*
X-333820273Y546271680D01*
X-334081426Y546379853D01*
X-334358665Y546435000D01*
X-334641335Y546435000D01*
X-334918574Y546379853D01*
X-335179727Y546271680D01*
X-335414759Y546114637D01*
X-335614637Y545914759D01*
X-335771680Y545679727D01*
X-335879853Y545418574D01*
X-335935000Y545141335D01*
X-335935000Y544858665D01*
X-335928017Y544823561D01*
X-337095049Y543656529D01*
X-337128816Y543628817D01*
X-337156529Y543595049D01*
X-337156532Y543595046D01*
X-337239410Y543494059D01*
X-337321588Y543340313D01*
X-337372195Y543173490D01*
X-337389281Y543000000D01*
X-337384999Y542956521D01*
X-337385000Y528136579D01*
X-338071983Y528823561D01*
X-338065000Y528858665D01*
X-338065000Y529141335D01*
X-338120147Y529418574D01*
X-338228320Y529679727D01*
X-338385363Y529914759D01*
X-338585241Y530114637D01*
X-338615000Y530134521D01*
X-338615000Y535865479D01*
X-338585241Y535885363D01*
X-338385363Y536085241D01*
X-338228320Y536320273D01*
X-338120147Y536581426D01*
X-338065000Y536858665D01*
X-338065000Y537141335D01*
X-338120147Y537418574D01*
X-338228320Y537679727D01*
X-338385363Y537914759D01*
X-338585241Y538114637D01*
X-338820273Y538271680D01*
X-339081426Y538379853D01*
X-339139907Y538391486D01*
X-341571983Y540823561D01*
X-341565000Y540858665D01*
X-341565000Y541141335D01*
X-341620147Y541418574D01*
X-341728320Y541679727D01*
X-341885363Y541914759D01*
X-342085241Y542114637D01*
X-342320273Y542271680D01*
X-342581426Y542379853D01*
X-342858665Y542435000D01*
X-343141335Y542435000D01*
X-343418574Y542379853D01*
X-343679727Y542271680D01*
X-343914759Y542114637D01*
X-344114637Y541914759D01*
X-344271680Y541679727D01*
X-344379853Y541418574D01*
X-344435000Y541141335D01*
X-344435000Y540858665D01*
X-344380795Y540586163D01*
X-344389281Y540500000D01*
X-344384999Y540456521D01*
X-344385000Y539385000D01*
X-345252954Y539385000D01*
X-345351058Y539465512D01*
X-345502433Y539546423D01*
X-345666684Y539596248D01*
X-345837500Y539613072D01*
X-346412500Y539613072D01*
X-346583316Y539596248D01*
X-346747567Y539546423D01*
X-346898942Y539465512D01*
X-346990000Y539390782D01*
X-346990000Y540956523D01*
X-346985718Y541000000D01*
X-346990000Y541043477D01*
X-346990000Y542758422D01*
X-345633421Y544115000D01*
X-340634521Y544115000D01*
X-340614637Y544085241D01*
X-340414759Y543885363D01*
X-340179727Y543728320D01*
X-339918574Y543620147D01*
X-339641335Y543565000D01*
X-339358665Y543565000D01*
X-339081426Y543620147D01*
X-338820273Y543728320D01*
X-338585241Y543885363D01*
X-338385363Y544085241D01*
X-338228320Y544320273D01*
X-338120147Y544581426D01*
X-338065000Y544858665D01*
X-338065000Y545141335D01*
X-338120147Y545418574D01*
X-338228320Y545679727D01*
X-338385363Y545914759D01*
X-338585241Y546114637D01*
X-338820273Y546271680D01*
X-339081426Y546379853D01*
X-339358665Y546435000D01*
X-339641335Y546435000D01*
X-339918574Y546379853D01*
X-340179727Y546271680D01*
X-340414759Y546114637D01*
X-340614637Y545914759D01*
X-340634521Y545885000D01*
X-345956535Y545885000D01*
X-346000001Y545889281D01*
X-346043467Y545885000D01*
X-346043477Y545885000D01*
X-346173490Y545872195D01*
X-346340313Y545821589D01*
X-346494059Y545739411D01*
X-346494061Y545739410D01*
X-346494060Y545739410D01*
X-346595047Y545656532D01*
X-346595049Y545656530D01*
X-346628817Y545628817D01*
X-346656530Y545595049D01*
X-348470044Y543781534D01*
X-348503817Y543753817D01*
X-348614411Y543619058D01*
X-348696589Y543465312D01*
X-348747195Y543298489D01*
X-348760000Y543168476D01*
X-348760000Y543168469D01*
X-348764281Y543125000D01*
X-348760000Y543081531D01*
X-348759999Y541885000D01*
X-349485479Y541885000D01*
X-349505363Y541914759D01*
X-349705241Y542114637D01*
X-349940273Y542271680D01*
X-350201426Y542379853D01*
X-350478665Y542435000D01*
X-350761335Y542435000D01*
X-351038574Y542379853D01*
X-351299727Y542271680D01*
X-351534759Y542114637D01*
X-351734637Y541914759D01*
X-351891680Y541679727D01*
X-351999853Y541418574D01*
X-352055000Y541141335D01*
X-354357500Y541141335D01*
X-354357500Y544300000D01*
X-353988072Y544300000D01*
X-353975812Y544175518D01*
X-353939502Y544055820D01*
X-353880537Y543945506D01*
X-353801185Y543848815D01*
X-353704494Y543769463D01*
X-353594180Y543710498D01*
X-353474482Y543674188D01*
X-353350000Y543661928D01*
X-352985750Y543665000D01*
X-352827000Y543823750D01*
X-352827000Y544998000D01*
X-353826250Y544998000D01*
X-353985000Y544839250D01*
X-353988072Y544300000D01*
X-354357500Y544300000D01*
X-354357500Y546450000D01*
X-354288072Y546450000D01*
X-354275812Y546325518D01*
X-354239502Y546205820D01*
X-354180537Y546095506D01*
X-354101185Y545998815D01*
X-354004494Y545919463D01*
X-353987847Y545910565D01*
X-353985000Y545410750D01*
X-353826250Y545252000D01*
X-352827000Y545252000D01*
X-352827000Y546823000D01*
X-354126250Y546823000D01*
X-354285000Y546664250D01*
X-354288072Y546450000D01*
X-354357500Y546450000D01*
X-354357500Y547450000D01*
X-354288072Y547450000D01*
X-354285000Y547235750D01*
X-354126250Y547077000D01*
X-352827000Y547077000D01*
X-352827000Y547926250D01*
X-352985750Y548085000D01*
X-353650000Y548088072D01*
X-353774482Y548075812D01*
X-353894180Y548039502D01*
X-354004494Y547980537D01*
X-354101185Y547901185D01*
X-354180537Y547804494D01*
X-354239502Y547694180D01*
X-354275812Y547574482D01*
X-354288072Y547450000D01*
X-354357500Y547450000D01*
X-354357500Y548750000D01*
X-354288072Y548750000D01*
X-354275812Y548625518D01*
X-354239502Y548505820D01*
X-354180537Y548395506D01*
X-354101185Y548298815D01*
X-354004494Y548219463D01*
X-353894180Y548160498D01*
X-353774482Y548124188D01*
X-353650000Y548111928D01*
X-352985750Y548115000D01*
X-352827000Y548273750D01*
X-352827000Y549523000D01*
X-354126250Y549523000D01*
X-354285000Y549364250D01*
X-354288072Y548750000D01*
X-354357500Y548750000D01*
X-354357500Y550550000D01*
X-354288072Y550550000D01*
X-354285000Y549935750D01*
X-354126250Y549777000D01*
X-352827000Y549777000D01*
X-352827000Y551748000D01*
X-353826250Y551748000D01*
X-353985000Y551589250D01*
X-353987847Y551089435D01*
X-354004494Y551080537D01*
X-354101185Y551001185D01*
X-354180537Y550904494D01*
X-354239502Y550794180D01*
X-354275812Y550674482D01*
X-354288072Y550550000D01*
X-354357500Y550550000D01*
X-354357500Y552700000D01*
X-353988072Y552700000D01*
X-353985000Y552160750D01*
X-353826250Y552002000D01*
X-352827000Y552002000D01*
X-352827000Y553176250D01*
X-352573000Y553176250D01*
X-352573000Y552002000D01*
X-352553000Y552002000D01*
X-352553000Y551748000D01*
X-352573000Y551748000D01*
X-352573000Y549777000D01*
X-352553000Y549777000D01*
X-352553000Y549523000D01*
X-352573000Y549523000D01*
X-352573000Y548273750D01*
X-352414250Y548115000D01*
X-351750000Y548111928D01*
X-351625518Y548124188D01*
X-351505820Y548160498D01*
X-351395506Y548219463D01*
X-351365063Y548244447D01*
X-351358223Y548175000D01*
X-351368072Y548075000D01*
X-351368072Y547958023D01*
X-351395506Y547980537D01*
X-351505820Y548039502D01*
X-351625518Y548075812D01*
X-351750000Y548088072D01*
X-352414250Y548085000D01*
X-352573000Y547926250D01*
X-352573000Y547077000D01*
X-352553000Y547077000D01*
X-352553000Y546823000D01*
X-352573000Y546823000D01*
X-352573000Y545252000D01*
X-352553000Y545252000D01*
X-352553000Y544998000D01*
X-352573000Y544998000D01*
X-352573000Y543823750D01*
X-352414250Y543665000D01*
X-352050000Y543661928D01*
X-351925518Y543674188D01*
X-351805820Y543710498D01*
X-351695506Y543769463D01*
X-351598815Y543848815D01*
X-351519463Y543945506D01*
X-351460498Y544055820D01*
X-351424188Y544175518D01*
X-351411928Y544300000D01*
X-351415000Y544839250D01*
X-351573748Y544997998D01*
X-351458595Y544997998D01*
X-351430537Y544945506D01*
X-351351185Y544848815D01*
X-351254494Y544769463D01*
X-351144180Y544710498D01*
X-351024482Y544674188D01*
X-350900000Y544661928D01*
X-350410750Y544665000D01*
X-350252000Y544823750D01*
X-350252000Y545885500D01*
X-349998000Y545885500D01*
X-349998000Y544823750D01*
X-349839250Y544665000D01*
X-349350000Y544661928D01*
X-349225518Y544674188D01*
X-349105820Y544710498D01*
X-348995506Y544769463D01*
X-348898815Y544848815D01*
X-348819463Y544945506D01*
X-348760498Y545055820D01*
X-348724188Y545175518D01*
X-348711928Y545300000D01*
X-348715000Y545726750D01*
X-348873750Y545885500D01*
X-349998000Y545885500D01*
X-350252000Y545885500D01*
X-350272000Y545885500D01*
X-350272000Y546139500D01*
X-350252000Y546139500D01*
X-350252000Y546159500D01*
X-349998000Y546159500D01*
X-349998000Y546139500D01*
X-348873750Y546139500D01*
X-348715000Y546298250D01*
X-348711928Y546725000D01*
X-348724188Y546849482D01*
X-348724978Y546852086D01*
X-348715000Y546943250D01*
X-348782968Y547011218D01*
X-348815991Y547072998D01*
X-348715000Y547072998D01*
X-348715000Y547090000D01*
X-334687322Y547090000D01*
X-334650000Y547086324D01*
X-334612678Y547090000D01*
X-334612667Y547090000D01*
X-334501014Y547100997D01*
X-334357753Y547144454D01*
X-334225724Y547215026D01*
X-334109999Y547309999D01*
X-334086197Y547339002D01*
X-333368991Y548056206D01*
X-333339999Y548079999D01*
X-333316205Y548108992D01*
X-333316201Y548108996D01*
X-333245027Y548195723D01*
X-333245026Y548195724D01*
X-333174454Y548327753D01*
X-333130997Y548471014D01*
X-333120000Y548582667D01*
X-333120000Y548582676D01*
X-333116324Y548619999D01*
X-333120000Y548657322D01*
X-333120000Y551721822D01*
X-332933368Y551846525D01*
X-332726525Y552053368D01*
X-332604805Y552235534D01*
X-332535178Y552118645D01*
X-332340269Y551902412D01*
X-332106920Y551728359D01*
X-331844099Y551603175D01*
X-331696890Y551558524D01*
X-331467000Y551679845D01*
X-331467000Y552873000D01*
X-331213000Y552873000D01*
X-331213000Y551679845D01*
X-330983110Y551558524D01*
X-330835901Y551603175D01*
X-330573080Y551728359D01*
X-330339731Y551902412D01*
X-330144822Y552118645D01*
X-329995843Y552368748D01*
X-329898519Y552643109D01*
X-330019186Y552873000D01*
X-331213000Y552873000D01*
X-331467000Y552873000D01*
X-331487000Y552873000D01*
X-331487000Y553127000D01*
X-331467000Y553127000D01*
X-331467000Y554320155D01*
X-331213000Y554320155D01*
X-331213000Y553127000D01*
X-330019186Y553127000D01*
X-329898519Y553356891D01*
X-329995843Y553631252D01*
X-330144822Y553881355D01*
X-330339731Y554097588D01*
X-330573080Y554271641D01*
X-330835901Y554396825D01*
X-330983110Y554441476D01*
X-331213000Y554320155D01*
X-331467000Y554320155D01*
X-331696890Y554441476D01*
X-331844099Y554396825D01*
X-332106920Y554271641D01*
X-332340269Y554097588D01*
X-332535178Y553881355D01*
X-332604805Y553764466D01*
X-332726525Y553946632D01*
X-332933368Y554153475D01*
X-333176589Y554315990D01*
X-333446842Y554427932D01*
X-333733740Y554485000D01*
X-334026260Y554485000D01*
X-334313158Y554427932D01*
X-334583411Y554315990D01*
X-334826632Y554153475D01*
X-335033475Y553946632D01*
X-335150000Y553772240D01*
X-335266525Y553946632D01*
X-335473368Y554153475D01*
X-335716589Y554315990D01*
X-335986842Y554427932D01*
X-336273740Y554485000D01*
X-336566260Y554485000D01*
X-336853158Y554427932D01*
X-337123411Y554315990D01*
X-337366632Y554153475D01*
X-337573475Y553946632D01*
X-337690000Y553772240D01*
X-337806525Y553946632D01*
X-338013368Y554153475D01*
X-338256589Y554315990D01*
X-338526842Y554427932D01*
X-338813740Y554485000D01*
X-339106260Y554485000D01*
X-339393158Y554427932D01*
X-339663411Y554315990D01*
X-339906632Y554153475D01*
X-340038487Y554021620D01*
X-340060498Y554094180D01*
X-340119463Y554204494D01*
X-340198815Y554301185D01*
X-340295506Y554380537D01*
X-340405820Y554439502D01*
X-340525518Y554475812D01*
X-340650000Y554488072D01*
X-342350000Y554488072D01*
X-342474482Y554475812D01*
X-342594180Y554439502D01*
X-342704494Y554380537D01*
X-342801185Y554301185D01*
X-342880537Y554204494D01*
X-342939502Y554094180D01*
X-342975812Y553974482D01*
X-342988072Y553850000D01*
X-342988072Y552150000D01*
X-342975812Y552025518D01*
X-342939502Y551905820D01*
X-342880537Y551795506D01*
X-342801185Y551698815D01*
X-342704494Y551619463D01*
X-342594180Y551560498D01*
X-342474482Y551524188D01*
X-342350000Y551511928D01*
X-342259999Y551511928D01*
X-342260000Y550560000D01*
X-348713980Y550560000D01*
X-348715000Y550701750D01*
X-348873750Y550860500D01*
X-349998000Y550860500D01*
X-349998000Y550840500D01*
X-350252000Y550840500D01*
X-350252000Y550860500D01*
X-350272000Y550860500D01*
X-350272000Y551114500D01*
X-350252000Y551114500D01*
X-350252000Y552176250D01*
X-349998000Y552176250D01*
X-349998000Y551114500D01*
X-348873750Y551114500D01*
X-348715000Y551273250D01*
X-348711928Y551700000D01*
X-348724188Y551824482D01*
X-348760498Y551944180D01*
X-348819463Y552054494D01*
X-348898815Y552151185D01*
X-348995506Y552230537D01*
X-349105820Y552289502D01*
X-349225518Y552325812D01*
X-349350000Y552338072D01*
X-349839250Y552335000D01*
X-349998000Y552176250D01*
X-350252000Y552176250D01*
X-350410750Y552335000D01*
X-350900000Y552338072D01*
X-351024482Y552325812D01*
X-351144180Y552289502D01*
X-351254494Y552230537D01*
X-351351185Y552151185D01*
X-351430537Y552054494D01*
X-351458595Y552002002D01*
X-351573748Y552002002D01*
X-351415000Y552160750D01*
X-351411928Y552700000D01*
X-351424188Y552824482D01*
X-351460498Y552944180D01*
X-351519463Y553054494D01*
X-351598815Y553151185D01*
X-351695506Y553230537D01*
X-351805820Y553289502D01*
X-351925518Y553325812D01*
X-352050000Y553338072D01*
X-352414250Y553335000D01*
X-352573000Y553176250D01*
X-352827000Y553176250D01*
X-352985750Y553335000D01*
X-353350000Y553338072D01*
X-353474482Y553325812D01*
X-353594180Y553289502D01*
X-353704494Y553230537D01*
X-353801185Y553151185D01*
X-353880537Y553054494D01*
X-353939502Y552944180D01*
X-353975812Y552824482D01*
X-353988072Y552700000D01*
X-354357500Y552700000D01*
X-354357500Y556670883D01*
X-352735000Y556670883D01*
X-352735000Y556329117D01*
X-352668325Y555993919D01*
X-352537537Y555678169D01*
X-352347663Y555394002D01*
X-352105998Y555152337D01*
X-351821831Y554962463D01*
X-351506081Y554831675D01*
X-351170883Y554765000D01*
X-350829117Y554765000D01*
X-350493919Y554831675D01*
X-350178169Y554962463D01*
X-349894002Y555152337D01*
X-349652337Y555394002D01*
X-349462463Y555678169D01*
X-349331675Y555993919D01*
X-349265000Y556329117D01*
X-349265000Y556670883D01*
X-320735000Y556670883D01*
X-320735000Y556329117D01*
X-320668325Y555993919D01*
X-320537537Y555678169D01*
X-320347663Y555394002D01*
X-320105998Y555152337D01*
X-319821831Y554962463D01*
X-319506081Y554831675D01*
X-319170883Y554765000D01*
X-318829117Y554765000D01*
X-318493919Y554831675D01*
X-318178169Y554962463D01*
X-317894002Y555152337D01*
X-317652337Y555394002D01*
X-317462463Y555678169D01*
X-317331675Y555993919D01*
X-317265000Y556329117D01*
X-317265000Y556670883D01*
X-317331675Y557006081D01*
X-317462463Y557321831D01*
X-317652337Y557605998D01*
X-317894002Y557847663D01*
X-318178169Y558037537D01*
X-318493919Y558168325D01*
X-318829117Y558235000D01*
X-319170883Y558235000D01*
X-319506081Y558168325D01*
X-319821831Y558037537D01*
X-320105998Y557847663D01*
X-320347663Y557605998D01*
X-320537537Y557321831D01*
X-320668325Y557006081D01*
X-320735000Y556670883D01*
X-349265000Y556670883D01*
X-349331675Y557006081D01*
X-349462463Y557321831D01*
X-349652337Y557605998D01*
X-349894002Y557847663D01*
X-350178169Y558037537D01*
X-350493919Y558168325D01*
X-350829117Y558235000D01*
X-351170883Y558235000D01*
X-351506081Y558168325D01*
X-351821831Y558037537D01*
X-352105998Y557847663D01*
X-352347663Y557605998D01*
X-352537537Y557321831D01*
X-352668325Y557006081D01*
X-352735000Y556670883D01*
X-354357500Y556670883D01*
X-354357500Y559357500D01*
X-315642500Y559357500D01*
X-315642499Y510642500D01*
%TA.AperFunction,Conductor*%
D24*
G36*
X-315642499Y510642500D02*
G01*
X-354357500Y510642500D01*
X-354357500Y514170883D01*
X-352235000Y514170883D01*
X-352235000Y513829117D01*
X-352168325Y513493919D01*
X-352037537Y513178169D01*
X-351847663Y512894002D01*
X-351605998Y512652337D01*
X-351321831Y512462463D01*
X-351006081Y512331675D01*
X-350670883Y512265000D01*
X-350329117Y512265000D01*
X-349993919Y512331675D01*
X-349678169Y512462463D01*
X-349394002Y512652337D01*
X-349152337Y512894002D01*
X-348962463Y513178169D01*
X-348831675Y513493919D01*
X-348765000Y513829117D01*
X-348765000Y514170883D01*
X-320735000Y514170883D01*
X-320735000Y513829117D01*
X-320668325Y513493919D01*
X-320537537Y513178169D01*
X-320347663Y512894002D01*
X-320105998Y512652337D01*
X-319821831Y512462463D01*
X-319506081Y512331675D01*
X-319170883Y512265000D01*
X-318829117Y512265000D01*
X-318493919Y512331675D01*
X-318178169Y512462463D01*
X-317894002Y512652337D01*
X-317652337Y512894002D01*
X-317462463Y513178169D01*
X-317331675Y513493919D01*
X-317265000Y513829117D01*
X-317265000Y514170883D01*
X-317331675Y514506081D01*
X-317462463Y514821831D01*
X-317652337Y515105998D01*
X-317894002Y515347663D01*
X-318178169Y515537537D01*
X-318493919Y515668325D01*
X-318829117Y515735000D01*
X-319170883Y515735000D01*
X-319506081Y515668325D01*
X-319821831Y515537537D01*
X-320105998Y515347663D01*
X-320347663Y515105998D01*
X-320537537Y514821831D01*
X-320668325Y514506081D01*
X-320735000Y514170883D01*
X-348765000Y514170883D01*
X-348831675Y514506081D01*
X-348962463Y514821831D01*
X-349152337Y515105998D01*
X-349394002Y515347663D01*
X-349678169Y515537537D01*
X-349993919Y515668325D01*
X-350329117Y515735000D01*
X-350670883Y515735000D01*
X-351006081Y515668325D01*
X-351321831Y515537537D01*
X-351605998Y515347663D01*
X-351847663Y515105998D01*
X-352037537Y514821831D01*
X-352168325Y514506081D01*
X-352235000Y514170883D01*
X-354357500Y514170883D01*
X-354357500Y518031557D01*
X-354360000Y518056940D01*
X-354360000Y519121637D01*
X-354235000Y519121637D01*
X-354235000Y518878363D01*
X-354187540Y518639764D01*
X-354094443Y518415008D01*
X-353959287Y518212733D01*
X-353787267Y518040713D01*
X-353584992Y517905557D01*
X-353360236Y517812460D01*
X-353121637Y517765000D01*
X-352878363Y517765000D01*
X-352639764Y517812460D01*
X-352415008Y517905557D01*
X-352212733Y518040713D01*
X-352040713Y518212733D01*
X-351905557Y518415008D01*
X-351812460Y518639764D01*
X-351765000Y518878363D01*
X-351765000Y519121637D01*
X-351735000Y519121637D01*
X-351735000Y518878363D01*
X-351687540Y518639764D01*
X-351594443Y518415008D01*
X-351459287Y518212733D01*
X-351287267Y518040713D01*
X-351084992Y517905557D01*
X-350860236Y517812460D01*
X-350621637Y517765000D01*
X-350378363Y517765000D01*
X-350139764Y517812460D01*
X-349915008Y517905557D01*
X-349712733Y518040713D01*
X-349540713Y518212733D01*
X-349405557Y518415008D01*
X-349312460Y518639764D01*
X-349265000Y518878363D01*
X-349265000Y519121637D01*
X-349312460Y519360236D01*
X-349405557Y519584992D01*
X-349540713Y519787267D01*
X-349712733Y519959287D01*
X-349915008Y520094443D01*
X-350139764Y520187540D01*
X-350378363Y520235000D01*
X-350621637Y520235000D01*
X-350860236Y520187540D01*
X-351084992Y520094443D01*
X-351287267Y519959287D01*
X-351459287Y519787267D01*
X-351594443Y519584992D01*
X-351687540Y519360236D01*
X-351735000Y519121637D01*
X-351765000Y519121637D01*
X-351812460Y519360236D01*
X-351905557Y519584992D01*
X-352040713Y519787267D01*
X-352212733Y519959287D01*
X-352415008Y520094443D01*
X-352639764Y520187540D01*
X-352878363Y520235000D01*
X-353121637Y520235000D01*
X-353360236Y520187540D01*
X-353584992Y520094443D01*
X-353787267Y519959287D01*
X-353959287Y519787267D01*
X-354094443Y519584992D01*
X-354187540Y519360236D01*
X-354235000Y519121637D01*
X-354360000Y519121637D01*
X-354360000Y521360000D01*
X-353831434Y521360000D01*
X-353800000Y521356904D01*
X-353768566Y521360000D01*
X-353674538Y521369261D01*
X-353553898Y521405857D01*
X-353442715Y521465285D01*
X-353345262Y521545262D01*
X-353265285Y521642715D01*
X-353205857Y521753898D01*
X-353169261Y521874538D01*
X-353156904Y522000000D01*
X-353160000Y522031434D01*
X-353160000Y525968566D01*
X-353156904Y526000000D01*
X-353169261Y526125462D01*
X-353205857Y526246102D01*
X-353265285Y526357285D01*
X-353345262Y526454738D01*
X-353442715Y526534715D01*
X-353553898Y526594143D01*
X-353674538Y526630739D01*
X-353768566Y526640000D01*
X-353800000Y526643096D01*
X-353831434Y526640000D01*
X-354360000Y526640000D01*
X-354360000Y529121637D01*
X-354235000Y529121637D01*
X-354235000Y528878363D01*
X-354187540Y528639764D01*
X-354094443Y528415008D01*
X-353959287Y528212733D01*
X-353787267Y528040713D01*
X-353584992Y527905557D01*
X-353360236Y527812460D01*
X-353121637Y527765000D01*
X-352878363Y527765000D01*
X-352639764Y527812460D01*
X-352415008Y527905557D01*
X-352212733Y528040713D01*
X-352040713Y528212733D01*
X-351905557Y528415008D01*
X-351812460Y528639764D01*
X-351765000Y528878363D01*
X-351765000Y529121637D01*
X-351735000Y529121637D01*
X-351735000Y528878363D01*
X-351687540Y528639764D01*
X-351594443Y528415008D01*
X-351459287Y528212733D01*
X-351287267Y528040713D01*
X-351084992Y527905557D01*
X-350860236Y527812460D01*
X-350621637Y527765000D01*
X-350378363Y527765000D01*
X-350139764Y527812460D01*
X-349915008Y527905557D01*
X-349712733Y528040713D01*
X-349540713Y528212733D01*
X-349405557Y528415008D01*
X-349312460Y528639764D01*
X-349265000Y528878363D01*
X-349265000Y529121637D01*
X-349312460Y529360236D01*
X-349405557Y529584992D01*
X-349540713Y529787267D01*
X-349712733Y529959287D01*
X-349915008Y530094443D01*
X-350139764Y530187540D01*
X-350378363Y530235000D01*
X-350621637Y530235000D01*
X-350860236Y530187540D01*
X-351084992Y530094443D01*
X-351287267Y529959287D01*
X-351459287Y529787267D01*
X-351594443Y529584992D01*
X-351687540Y529360236D01*
X-351735000Y529121637D01*
X-351765000Y529121637D01*
X-351812460Y529360236D01*
X-351905557Y529584992D01*
X-352040713Y529787267D01*
X-352212733Y529959287D01*
X-352415008Y530094443D01*
X-352639764Y530187540D01*
X-352878363Y530235000D01*
X-353121637Y530235000D01*
X-353360236Y530187540D01*
X-353584992Y530094443D01*
X-353787267Y529959287D01*
X-353959287Y529787267D01*
X-354094443Y529584992D01*
X-354187540Y529360236D01*
X-354235000Y529121637D01*
X-354360000Y529121637D01*
X-354360000Y529943060D01*
X-354357500Y529968443D01*
X-354357500Y541141335D01*
X-352055000Y541141335D01*
X-352055000Y540858665D01*
X-351999853Y540581426D01*
X-351891680Y540320273D01*
X-351734637Y540085241D01*
X-351534759Y539885363D01*
X-351299727Y539728320D01*
X-351038574Y539620147D01*
X-350761335Y539565000D01*
X-350478665Y539565000D01*
X-350201426Y539620147D01*
X-349940273Y539728320D01*
X-349705241Y539885363D01*
X-349505363Y540085241D01*
X-349485479Y540115000D01*
X-348760000Y540115000D01*
X-348760000Y539374369D01*
X-348781623Y539356623D01*
X-348890512Y539223942D01*
X-348971423Y539072567D01*
X-349021248Y538908316D01*
X-349038072Y538737500D01*
X-349038072Y538262500D01*
X-349021248Y538091684D01*
X-348971423Y537927433D01*
X-348890512Y537776058D01*
X-348781623Y537643377D01*
X-348759999Y537625631D01*
X-348759999Y536385000D01*
X-349365479Y536385000D01*
X-349385363Y536414759D01*
X-349585241Y536614637D01*
X-349820273Y536771680D01*
X-350081426Y536879853D01*
X-350358665Y536935000D01*
X-350641335Y536935000D01*
X-350918574Y536879853D01*
X-351179727Y536771680D01*
X-351414759Y536614637D01*
X-351614637Y536414759D01*
X-351771680Y536179727D01*
X-351879853Y535918574D01*
X-351935000Y535641335D01*
X-351935000Y535358665D01*
X-351879853Y535081426D01*
X-351771680Y534820273D01*
X-351614637Y534585241D01*
X-351414759Y534385363D01*
X-351179727Y534228320D01*
X-350918574Y534120147D01*
X-350641335Y534065000D01*
X-350358665Y534065000D01*
X-350081426Y534120147D01*
X-349820273Y534228320D01*
X-349585241Y534385363D01*
X-349385363Y534585241D01*
X-349365479Y534615000D01*
X-348760000Y534615000D01*
X-348759999Y533874369D01*
X-348781623Y533856623D01*
X-348890512Y533723942D01*
X-348971423Y533572567D01*
X-349021248Y533408316D01*
X-349038072Y533237500D01*
X-349038072Y532762500D01*
X-349021248Y532591684D01*
X-348971423Y532427433D01*
X-348890512Y532276058D01*
X-348781623Y532143377D01*
X-348760000Y532125631D01*
X-348759999Y526991580D01*
X-349595047Y526156532D01*
X-349936953Y525814625D01*
X-350004336Y525850642D01*
X-350247313Y525924348D01*
X-350500000Y525949236D01*
X-350752688Y525924348D01*
X-350995665Y525850642D01*
X-351219595Y525730949D01*
X-351415870Y525569870D01*
X-351576949Y525373594D01*
X-351696642Y525149664D01*
X-351770348Y524906687D01*
X-351789000Y524717313D01*
X-351789000Y523282686D01*
X-351770348Y523093312D01*
X-351696642Y522850335D01*
X-351576948Y522626405D01*
X-351415869Y522430130D01*
X-351219594Y522269051D01*
X-350995664Y522149358D01*
X-350752687Y522075652D01*
X-350500000Y522050764D01*
X-350247312Y522075652D01*
X-350004335Y522149358D01*
X-349780405Y522269051D01*
X-349584130Y522430130D01*
X-349423051Y522626405D01*
X-349303358Y522850335D01*
X-349229652Y523093312D01*
X-349211000Y523282686D01*
X-349211000Y524037422D01*
X-348343468Y524904953D01*
X-347313526Y525934895D01*
X-347230949Y525780405D01*
X-347069870Y525584130D01*
X-346873595Y525423051D01*
X-346649665Y525303358D01*
X-346406688Y525229652D01*
X-346217314Y525211000D01*
X-345742294Y525211000D01*
X-345860236Y525187540D01*
X-346084992Y525094443D01*
X-346287267Y524959287D01*
X-346459287Y524787267D01*
X-346594443Y524584992D01*
X-346687540Y524360236D01*
X-346735000Y524121637D01*
X-346735000Y523878363D01*
X-346687540Y523639764D01*
X-346594443Y523415008D01*
X-346459287Y523212733D01*
X-346287267Y523040713D01*
X-346084992Y522905557D01*
X-345860236Y522812460D01*
X-345742294Y522789000D01*
X-346217314Y522789000D01*
X-346406688Y522770348D01*
X-346649665Y522696642D01*
X-346873595Y522576949D01*
X-347069870Y522415870D01*
X-347230949Y522219595D01*
X-347350642Y521995665D01*
X-347424348Y521752688D01*
X-347449236Y521500000D01*
X-347424348Y521247312D01*
X-347350642Y521004335D01*
X-347230949Y520780405D01*
X-347069870Y520584130D01*
X-346873595Y520423051D01*
X-346649665Y520303358D01*
X-346473767Y520250000D01*
X-346649665Y520196642D01*
X-346873595Y520076949D01*
X-347069870Y519915870D01*
X-347230949Y519719595D01*
X-347350642Y519495665D01*
X-347424348Y519252688D01*
X-347449236Y519000000D01*
X-347424348Y518747312D01*
X-347350642Y518504335D01*
X-347230949Y518280405D01*
X-347069870Y518084130D01*
X-346873595Y517923051D01*
X-346649665Y517803358D01*
X-346406688Y517729652D01*
X-346217314Y517711000D01*
X-344782686Y517711000D01*
X-344593312Y517729652D01*
X-344350335Y517803358D01*
X-344126405Y517923051D01*
X-343930130Y518084130D01*
X-343904796Y518115000D01*
X-339543469Y518115000D01*
X-339500000Y518110719D01*
X-339456531Y518115000D01*
X-339456523Y518115000D01*
X-339326510Y518127805D01*
X-339159687Y518178411D01*
X-339005941Y518260589D01*
X-338871183Y518371183D01*
X-338843466Y518404956D01*
X-337104961Y520143460D01*
X-337071193Y520171173D01*
X-337038507Y520211000D01*
X-336960600Y520305930D01*
X-336931384Y520360589D01*
X-336878421Y520459677D01*
X-336827815Y520626500D01*
X-336823213Y520673224D01*
X-336673490Y520627805D01*
X-336500000Y520610718D01*
X-336456524Y520615000D01*
X-335634521Y520615000D01*
X-335614637Y520585241D01*
X-335414759Y520385363D01*
X-335179727Y520228320D01*
X-334918574Y520120147D01*
X-334641335Y520065000D01*
X-334358665Y520065000D01*
X-334081426Y520120147D01*
X-333820273Y520228320D01*
X-333585241Y520385363D01*
X-333385363Y520585241D01*
X-333365479Y520615000D01*
X-331747046Y520615000D01*
X-331648942Y520534488D01*
X-331497567Y520453577D01*
X-331333316Y520403752D01*
X-331162500Y520386928D01*
X-330587500Y520386928D01*
X-330416684Y520403752D01*
X-330252433Y520453577D01*
X-330101058Y520534488D01*
X-330000000Y520617425D01*
X-329898942Y520534488D01*
X-329747567Y520453577D01*
X-329583316Y520403752D01*
X-329412500Y520386928D01*
X-328837500Y520386928D01*
X-328666684Y520403752D01*
X-328502433Y520453577D01*
X-328351058Y520534488D01*
X-328252954Y520615000D01*
X-328043469Y520615000D01*
X-328000000Y520610719D01*
X-327956531Y520615000D01*
X-327956523Y520615000D01*
X-327826510Y520627805D01*
X-327659687Y520678411D01*
X-327505941Y520760589D01*
X-327371183Y520871183D01*
X-327343466Y520904956D01*
X-326223468Y522024953D01*
X-326140590Y522125940D01*
X-326058412Y522279686D01*
X-326007806Y522446509D01*
X-325990719Y522619999D01*
X-326007806Y522793489D01*
X-326058412Y522960313D01*
X-326120000Y523075537D01*
X-326120000Y523781957D01*
X-325965241Y523885363D01*
X-325765363Y524085241D01*
X-325608320Y524320273D01*
X-325500147Y524581426D01*
X-325445000Y524858665D01*
X-325445000Y525141335D01*
X-325451983Y525176439D01*
X-325404951Y525223470D01*
X-325371183Y525251183D01*
X-325328363Y525303358D01*
X-325260589Y525385941D01*
X-325249944Y525405857D01*
X-325178411Y525539687D01*
X-325135930Y525679727D01*
X-325127805Y525706509D01*
X-325123620Y525749003D01*
X-325115000Y525836523D01*
X-325115000Y525836531D01*
X-325110719Y525880000D01*
X-325115000Y525923469D01*
X-325115000Y530133422D01*
X-324873421Y530375000D01*
X-324694656Y530375000D01*
X-324653475Y530313368D01*
X-324446632Y530106525D01*
X-324272240Y529990000D01*
X-324446632Y529873475D01*
X-324653475Y529666632D01*
X-324815990Y529423411D01*
X-324927932Y529153158D01*
X-324985000Y528866260D01*
X-324985000Y528573740D01*
X-324927932Y528286842D01*
X-324815990Y528016589D01*
X-324653475Y527773368D01*
X-324446632Y527566525D01*
X-324272240Y527450000D01*
X-324446632Y527333475D01*
X-324653475Y527126632D01*
X-324815990Y526883411D01*
X-324927932Y526613158D01*
X-324985000Y526326260D01*
X-324985000Y526033740D01*
X-324927932Y525746842D01*
X-324815990Y525476589D01*
X-324653475Y525233368D01*
X-324446632Y525026525D01*
X-324272240Y524910000D01*
X-324446632Y524793475D01*
X-324653475Y524586632D01*
X-324815990Y524343411D01*
X-324927932Y524073158D01*
X-324985000Y523786260D01*
X-324985000Y523493740D01*
X-324927932Y523206842D01*
X-324815990Y522936589D01*
X-324653475Y522693368D01*
X-324446632Y522486525D01*
X-324272240Y522370000D01*
X-324446632Y522253475D01*
X-324653475Y522046632D01*
X-324815990Y521803411D01*
X-324927932Y521533158D01*
X-324985000Y521246260D01*
X-324985000Y520953740D01*
X-324927932Y520666842D01*
X-324815990Y520396589D01*
X-324653475Y520153368D01*
X-324446632Y519946525D01*
X-324203411Y519784010D01*
X-323933158Y519672068D01*
X-323646260Y519615000D01*
X-323353740Y519615000D01*
X-323066842Y519672068D01*
X-322796589Y519784010D01*
X-322553368Y519946525D01*
X-322346525Y520153368D01*
X-322305344Y520215000D01*
X-319694656Y520215000D01*
X-319653475Y520153368D01*
X-319446632Y519946525D01*
X-319203411Y519784010D01*
X-318933158Y519672068D01*
X-318646260Y519615000D01*
X-318353740Y519615000D01*
X-318066842Y519672068D01*
X-317796589Y519784010D01*
X-317553368Y519946525D01*
X-317346525Y520153368D01*
X-317184010Y520396589D01*
X-317072068Y520666842D01*
X-317015000Y520953740D01*
X-317015000Y521246260D01*
X-317072068Y521533158D01*
X-317184010Y521803411D01*
X-317346525Y522046632D01*
X-317553368Y522253475D01*
X-317727760Y522370000D01*
X-317553368Y522486525D01*
X-317346525Y522693368D01*
X-317184010Y522936589D01*
X-317072068Y523206842D01*
X-317015000Y523493740D01*
X-317015000Y523786260D01*
X-317072068Y524073158D01*
X-317184010Y524343411D01*
X-317346525Y524586632D01*
X-317553368Y524793475D01*
X-317727760Y524910000D01*
X-317553368Y525026525D01*
X-317346525Y525233368D01*
X-317184010Y525476589D01*
X-317072068Y525746842D01*
X-317015000Y526033740D01*
X-317015000Y526326260D01*
X-317072068Y526613158D01*
X-317184010Y526883411D01*
X-317346525Y527126632D01*
X-317553368Y527333475D01*
X-317727760Y527450000D01*
X-317553368Y527566525D01*
X-317346525Y527773368D01*
X-317184010Y528016589D01*
X-317072068Y528286842D01*
X-317015000Y528573740D01*
X-317015000Y528866260D01*
X-317072068Y529153158D01*
X-317184010Y529423411D01*
X-317346525Y529666632D01*
X-317553368Y529873475D01*
X-317727760Y529990000D01*
X-317553368Y530106525D01*
X-317346525Y530313368D01*
X-317184010Y530556589D01*
X-317072068Y530826842D01*
X-317015000Y531113740D01*
X-317015000Y531406260D01*
X-317072068Y531693158D01*
X-317184010Y531963411D01*
X-317346525Y532206632D01*
X-317553368Y532413475D01*
X-317727760Y532530000D01*
X-317553368Y532646525D01*
X-317346525Y532853368D01*
X-317184010Y533096589D01*
X-317072068Y533366842D01*
X-317015000Y533653740D01*
X-317015000Y533946260D01*
X-317072068Y534233158D01*
X-317184010Y534503411D01*
X-317346525Y534746632D01*
X-317553368Y534953475D01*
X-317727760Y535070000D01*
X-317553368Y535186525D01*
X-317346525Y535393368D01*
X-317184010Y535636589D01*
X-317072068Y535906842D01*
X-317015000Y536193740D01*
X-317015000Y536486260D01*
X-317072068Y536773158D01*
X-317184010Y537043411D01*
X-317346525Y537286632D01*
X-317553368Y537493475D01*
X-317727760Y537610000D01*
X-317553368Y537726525D01*
X-317346525Y537933368D01*
X-317184010Y538176589D01*
X-317072068Y538446842D01*
X-317015000Y538733740D01*
X-317015000Y539026260D01*
X-317072068Y539313158D01*
X-317184010Y539583411D01*
X-317346525Y539826632D01*
X-317553368Y540033475D01*
X-317735534Y540155195D01*
X-317618645Y540224822D01*
X-317402412Y540419731D01*
X-317228359Y540653080D01*
X-317103175Y540915901D01*
X-317058524Y541063110D01*
X-317179845Y541293000D01*
X-318373000Y541293000D01*
X-318373000Y541273000D01*
X-318627000Y541273000D01*
X-318627000Y541293000D01*
X-319820155Y541293000D01*
X-319941476Y541063110D01*
X-319896825Y540915901D01*
X-319771641Y540653080D01*
X-319597588Y540419731D01*
X-319381355Y540224822D01*
X-319264466Y540155195D01*
X-319446632Y540033475D01*
X-319653475Y539826632D01*
X-319694656Y539765000D01*
X-322305344Y539765000D01*
X-322346525Y539826632D01*
X-322553368Y540033475D01*
X-322735534Y540155195D01*
X-322618645Y540224822D01*
X-322402412Y540419731D01*
X-322228359Y540653080D01*
X-322103175Y540915901D01*
X-322058524Y541063110D01*
X-322179845Y541293000D01*
X-323373000Y541293000D01*
X-323373000Y541273000D01*
X-323627000Y541273000D01*
X-323627000Y541293000D01*
X-324820155Y541293000D01*
X-324941476Y541063110D01*
X-324896825Y540915901D01*
X-324771641Y540653080D01*
X-324597588Y540419731D01*
X-324381355Y540224822D01*
X-324264466Y540155195D01*
X-324446632Y540033475D01*
X-324653475Y539826632D01*
X-324815990Y539583411D01*
X-324927932Y539313158D01*
X-324985000Y539026260D01*
X-324985000Y538733740D01*
X-324927932Y538446842D01*
X-324815990Y538176589D01*
X-324653475Y537933368D01*
X-324446632Y537726525D01*
X-324272240Y537610000D01*
X-324446632Y537493475D01*
X-324653475Y537286632D01*
X-324815990Y537043411D01*
X-324927932Y536773158D01*
X-324985000Y536486260D01*
X-324985000Y536193740D01*
X-324927932Y535906842D01*
X-324815990Y535636589D01*
X-324653475Y535393368D01*
X-324446632Y535186525D01*
X-324272240Y535070000D01*
X-324446632Y534953475D01*
X-324653475Y534746632D01*
X-324694656Y534685000D01*
X-326036531Y534685000D01*
X-326080000Y534689281D01*
X-326123469Y534685000D01*
X-326123477Y534685000D01*
X-326253490Y534672195D01*
X-326420313Y534621589D01*
X-326440651Y534610718D01*
X-326574059Y534539411D01*
X-326675047Y534456532D01*
X-326675049Y534456530D01*
X-326708576Y534429015D01*
X-326738665Y534435000D01*
X-327021335Y534435000D01*
X-327298574Y534379853D01*
X-327559727Y534271680D01*
X-327794759Y534114637D01*
X-327994637Y533914759D01*
X-328151680Y533679727D01*
X-328259853Y533418574D01*
X-328315000Y533141335D01*
X-328315000Y532858665D01*
X-328259853Y532581426D01*
X-328151680Y532320273D01*
X-327994637Y532085241D01*
X-327794759Y531885363D01*
X-327765000Y531865478D01*
X-327764999Y530986580D01*
X-328657973Y530093605D01*
X-328666684Y530096248D01*
X-328837500Y530113072D01*
X-329412500Y530113072D01*
X-329583316Y530096248D01*
X-329747567Y530046423D01*
X-329898942Y529965512D01*
X-330000000Y529882575D01*
X-330101058Y529965512D01*
X-330252433Y530046423D01*
X-330416684Y530096248D01*
X-330587500Y530113072D01*
X-331162500Y530113072D01*
X-331333316Y530096248D01*
X-331497567Y530046423D01*
X-331648942Y529965512D01*
X-331747046Y529885000D01*
X-333365479Y529885000D01*
X-333385363Y529914759D01*
X-333585241Y530114637D01*
X-333615000Y530134521D01*
X-333615000Y531865479D01*
X-333585241Y531885363D01*
X-333385363Y532085241D01*
X-333228320Y532320273D01*
X-333120147Y532581426D01*
X-333065000Y532858665D01*
X-333065000Y533141335D01*
X-333120147Y533418574D01*
X-333228320Y533679727D01*
X-333385363Y533914759D01*
X-333585241Y534114637D01*
X-333820273Y534271680D01*
X-334081426Y534379853D01*
X-334358665Y534435000D01*
X-334641335Y534435000D01*
X-334918574Y534379853D01*
X-335179727Y534271680D01*
X-335414759Y534114637D01*
X-335614637Y533914759D01*
X-335615000Y533914216D01*
X-335615000Y536085784D01*
X-335614637Y536085241D01*
X-335414759Y535885363D01*
X-335179727Y535728320D01*
X-334918574Y535620147D01*
X-334641335Y535565000D01*
X-334358665Y535565000D01*
X-334081426Y535620147D01*
X-333820273Y535728320D01*
X-333585241Y535885363D01*
X-333385363Y536085241D01*
X-333228320Y536320273D01*
X-333120147Y536581426D01*
X-333065000Y536858665D01*
X-333065000Y537141335D01*
X-333071983Y537176439D01*
X-324905748Y545342673D01*
X-324880537Y545295506D01*
X-324801185Y545198815D01*
X-324704494Y545119463D01*
X-324594180Y545060498D01*
X-324521620Y545038487D01*
X-324653475Y544906632D01*
X-324815990Y544663411D01*
X-324927932Y544393158D01*
X-324985000Y544106260D01*
X-324985000Y543813740D01*
X-324927932Y543526842D01*
X-324815990Y543256589D01*
X-324653475Y543013368D01*
X-324446632Y542806525D01*
X-324264466Y542684805D01*
X-324381355Y542615178D01*
X-324597588Y542420269D01*
X-324771641Y542186920D01*
X-324896825Y541924099D01*
X-324941476Y541776890D01*
X-324820155Y541547000D01*
X-323627000Y541547000D01*
X-323627000Y541567000D01*
X-323373000Y541567000D01*
X-323373000Y541547000D01*
X-322179845Y541547000D01*
X-322058524Y541776890D01*
X-322103175Y541924099D01*
X-322228359Y542186920D01*
X-322402412Y542420269D01*
X-322618645Y542615178D01*
X-322735534Y542684805D01*
X-322553368Y542806525D01*
X-322346525Y543013368D01*
X-322305344Y543075000D01*
X-319694656Y543075000D01*
X-319653475Y543013368D01*
X-319446632Y542806525D01*
X-319264466Y542684805D01*
X-319381355Y542615178D01*
X-319597588Y542420269D01*
X-319771641Y542186920D01*
X-319896825Y541924099D01*
X-319941476Y541776890D01*
X-319820155Y541547000D01*
X-318627000Y541547000D01*
X-318627000Y541567000D01*
X-318373000Y541567000D01*
X-318373000Y541547000D01*
X-317179845Y541547000D01*
X-317058524Y541776890D01*
X-317103175Y541924099D01*
X-317228359Y542186920D01*
X-317402412Y542420269D01*
X-317618645Y542615178D01*
X-317735534Y542684805D01*
X-317553368Y542806525D01*
X-317346525Y543013368D01*
X-317184010Y543256589D01*
X-317072068Y543526842D01*
X-317015000Y543813740D01*
X-317015000Y544106260D01*
X-317072068Y544393158D01*
X-317184010Y544663411D01*
X-317346525Y544906632D01*
X-317478380Y545038487D01*
X-317405820Y545060498D01*
X-317295506Y545119463D01*
X-317198815Y545198815D01*
X-317119463Y545295506D01*
X-317060498Y545405820D01*
X-317024188Y545525518D01*
X-317011928Y545650000D01*
X-317011928Y547350000D01*
X-317024188Y547474482D01*
X-317060498Y547594180D01*
X-317119463Y547704494D01*
X-317198815Y547801185D01*
X-317295506Y547880537D01*
X-317405820Y547939502D01*
X-317525518Y547975812D01*
X-317650000Y547988072D01*
X-319350000Y547988072D01*
X-319474482Y547975812D01*
X-319594180Y547939502D01*
X-319704494Y547880537D01*
X-319801185Y547801185D01*
X-319880537Y547704494D01*
X-319939502Y547594180D01*
X-319975812Y547474482D01*
X-319984625Y547385000D01*
X-322015375Y547385000D01*
X-322024188Y547474482D01*
X-322060498Y547594180D01*
X-322119463Y547704494D01*
X-322198815Y547801185D01*
X-322295506Y547880537D01*
X-322405820Y547939502D01*
X-322525518Y547975812D01*
X-322650000Y547988072D01*
X-324350000Y547988072D01*
X-324474482Y547975812D01*
X-324594180Y547939502D01*
X-324704494Y547880537D01*
X-324801185Y547801185D01*
X-324880537Y547704494D01*
X-324939502Y547594180D01*
X-324975812Y547474482D01*
X-324984355Y547387740D01*
X-325000000Y547389281D01*
X-325043469Y547385000D01*
X-325043477Y547385000D01*
X-325173490Y547372195D01*
X-325340313Y547321589D01*
X-325463889Y547255537D01*
X-325494059Y547239411D01*
X-325595047Y547156532D01*
X-325595049Y547156530D01*
X-325628817Y547128817D01*
X-325656530Y547095049D01*
X-334323561Y538428017D01*
X-334358665Y538435000D01*
X-334641335Y538435000D01*
X-334918574Y538379853D01*
X-335179727Y538271680D01*
X-335414759Y538114637D01*
X-335614637Y537914759D01*
X-335615000Y537914216D01*
X-335615000Y542633422D01*
X-334676439Y543571983D01*
X-334641335Y543565000D01*
X-334358665Y543565000D01*
X-334081426Y543620147D01*
X-333820273Y543728320D01*
X-333585241Y543885363D01*
X-333385363Y544085241D01*
X-333228320Y544320273D01*
X-333120147Y544581426D01*
X-333065000Y544858665D01*
X-333065000Y545141335D01*
X-333120147Y545418574D01*
X-333228320Y545679727D01*
X-333385363Y545914759D01*
X-333585241Y546114637D01*
X-333820273Y546271680D01*
X-334081426Y546379853D01*
X-334358665Y546435000D01*
X-334641335Y546435000D01*
X-334918574Y546379853D01*
X-335179727Y546271680D01*
X-335414759Y546114637D01*
X-335614637Y545914759D01*
X-335771680Y545679727D01*
X-335879853Y545418574D01*
X-335935000Y545141335D01*
X-335935000Y544858665D01*
X-335928017Y544823561D01*
X-337095049Y543656529D01*
X-337128816Y543628817D01*
X-337156529Y543595049D01*
X-337156532Y543595046D01*
X-337239410Y543494059D01*
X-337321588Y543340313D01*
X-337372195Y543173490D01*
X-337389281Y543000000D01*
X-337384999Y542956521D01*
X-337385000Y528136579D01*
X-338071983Y528823561D01*
X-338065000Y528858665D01*
X-338065000Y529141335D01*
X-338120147Y529418574D01*
X-338228320Y529679727D01*
X-338385363Y529914759D01*
X-338585241Y530114637D01*
X-338615000Y530134521D01*
X-338615000Y535865479D01*
X-338585241Y535885363D01*
X-338385363Y536085241D01*
X-338228320Y536320273D01*
X-338120147Y536581426D01*
X-338065000Y536858665D01*
X-338065000Y537141335D01*
X-338120147Y537418574D01*
X-338228320Y537679727D01*
X-338385363Y537914759D01*
X-338585241Y538114637D01*
X-338820273Y538271680D01*
X-339081426Y538379853D01*
X-339139907Y538391486D01*
X-341571983Y540823561D01*
X-341565000Y540858665D01*
X-341565000Y541141335D01*
X-341620147Y541418574D01*
X-341728320Y541679727D01*
X-341885363Y541914759D01*
X-342085241Y542114637D01*
X-342320273Y542271680D01*
X-342581426Y542379853D01*
X-342858665Y542435000D01*
X-343141335Y542435000D01*
X-343418574Y542379853D01*
X-343679727Y542271680D01*
X-343914759Y542114637D01*
X-344114637Y541914759D01*
X-344271680Y541679727D01*
X-344379853Y541418574D01*
X-344435000Y541141335D01*
X-344435000Y540858665D01*
X-344380795Y540586163D01*
X-344389281Y540500000D01*
X-344384999Y540456521D01*
X-344385000Y539385000D01*
X-345252954Y539385000D01*
X-345351058Y539465512D01*
X-345502433Y539546423D01*
X-345666684Y539596248D01*
X-345837500Y539613072D01*
X-346412500Y539613072D01*
X-346583316Y539596248D01*
X-346747567Y539546423D01*
X-346898942Y539465512D01*
X-346990000Y539390782D01*
X-346990000Y540956523D01*
X-346985718Y541000000D01*
X-346990000Y541043477D01*
X-346990000Y542758422D01*
X-345633421Y544115000D01*
X-340634521Y544115000D01*
X-340614637Y544085241D01*
X-340414759Y543885363D01*
X-340179727Y543728320D01*
X-339918574Y543620147D01*
X-339641335Y543565000D01*
X-339358665Y543565000D01*
X-339081426Y543620147D01*
X-338820273Y543728320D01*
X-338585241Y543885363D01*
X-338385363Y544085241D01*
X-338228320Y544320273D01*
X-338120147Y544581426D01*
X-338065000Y544858665D01*
X-338065000Y545141335D01*
X-338120147Y545418574D01*
X-338228320Y545679727D01*
X-338385363Y545914759D01*
X-338585241Y546114637D01*
X-338820273Y546271680D01*
X-339081426Y546379853D01*
X-339358665Y546435000D01*
X-339641335Y546435000D01*
X-339918574Y546379853D01*
X-340179727Y546271680D01*
X-340414759Y546114637D01*
X-340614637Y545914759D01*
X-340634521Y545885000D01*
X-345956535Y545885000D01*
X-346000001Y545889281D01*
X-346043467Y545885000D01*
X-346043477Y545885000D01*
X-346173490Y545872195D01*
X-346340313Y545821589D01*
X-346494059Y545739411D01*
X-346494061Y545739410D01*
X-346494060Y545739410D01*
X-346595047Y545656532D01*
X-346595049Y545656530D01*
X-346628817Y545628817D01*
X-346656530Y545595049D01*
X-348470044Y543781534D01*
X-348503817Y543753817D01*
X-348614411Y543619058D01*
X-348696589Y543465312D01*
X-348747195Y543298489D01*
X-348760000Y543168476D01*
X-348760000Y543168469D01*
X-348764281Y543125000D01*
X-348760000Y543081531D01*
X-348759999Y541885000D01*
X-349485479Y541885000D01*
X-349505363Y541914759D01*
X-349705241Y542114637D01*
X-349940273Y542271680D01*
X-350201426Y542379853D01*
X-350478665Y542435000D01*
X-350761335Y542435000D01*
X-351038574Y542379853D01*
X-351299727Y542271680D01*
X-351534759Y542114637D01*
X-351734637Y541914759D01*
X-351891680Y541679727D01*
X-351999853Y541418574D01*
X-352055000Y541141335D01*
X-354357500Y541141335D01*
X-354357500Y544300000D01*
X-353988072Y544300000D01*
X-353975812Y544175518D01*
X-353939502Y544055820D01*
X-353880537Y543945506D01*
X-353801185Y543848815D01*
X-353704494Y543769463D01*
X-353594180Y543710498D01*
X-353474482Y543674188D01*
X-353350000Y543661928D01*
X-352985750Y543665000D01*
X-352827000Y543823750D01*
X-352827000Y544998000D01*
X-353826250Y544998000D01*
X-353985000Y544839250D01*
X-353988072Y544300000D01*
X-354357500Y544300000D01*
X-354357500Y546450000D01*
X-354288072Y546450000D01*
X-354275812Y546325518D01*
X-354239502Y546205820D01*
X-354180537Y546095506D01*
X-354101185Y545998815D01*
X-354004494Y545919463D01*
X-353987847Y545910565D01*
X-353985000Y545410750D01*
X-353826250Y545252000D01*
X-352827000Y545252000D01*
X-352827000Y546823000D01*
X-354126250Y546823000D01*
X-354285000Y546664250D01*
X-354288072Y546450000D01*
X-354357500Y546450000D01*
X-354357500Y547450000D01*
X-354288072Y547450000D01*
X-354285000Y547235750D01*
X-354126250Y547077000D01*
X-352827000Y547077000D01*
X-352827000Y547926250D01*
X-352985750Y548085000D01*
X-353650000Y548088072D01*
X-353774482Y548075812D01*
X-353894180Y548039502D01*
X-354004494Y547980537D01*
X-354101185Y547901185D01*
X-354180537Y547804494D01*
X-354239502Y547694180D01*
X-354275812Y547574482D01*
X-354288072Y547450000D01*
X-354357500Y547450000D01*
X-354357500Y548750000D01*
X-354288072Y548750000D01*
X-354275812Y548625518D01*
X-354239502Y548505820D01*
X-354180537Y548395506D01*
X-354101185Y548298815D01*
X-354004494Y548219463D01*
X-353894180Y548160498D01*
X-353774482Y548124188D01*
X-353650000Y548111928D01*
X-352985750Y548115000D01*
X-352827000Y548273750D01*
X-352827000Y549523000D01*
X-354126250Y549523000D01*
X-354285000Y549364250D01*
X-354288072Y548750000D01*
X-354357500Y548750000D01*
X-354357500Y550550000D01*
X-354288072Y550550000D01*
X-354285000Y549935750D01*
X-354126250Y549777000D01*
X-352827000Y549777000D01*
X-352827000Y551748000D01*
X-353826250Y551748000D01*
X-353985000Y551589250D01*
X-353987847Y551089435D01*
X-354004494Y551080537D01*
X-354101185Y551001185D01*
X-354180537Y550904494D01*
X-354239502Y550794180D01*
X-354275812Y550674482D01*
X-354288072Y550550000D01*
X-354357500Y550550000D01*
X-354357500Y552700000D01*
X-353988072Y552700000D01*
X-353985000Y552160750D01*
X-353826250Y552002000D01*
X-352827000Y552002000D01*
X-352827000Y553176250D01*
X-352573000Y553176250D01*
X-352573000Y552002000D01*
X-352553000Y552002000D01*
X-352553000Y551748000D01*
X-352573000Y551748000D01*
X-352573000Y549777000D01*
X-352553000Y549777000D01*
X-352553000Y549523000D01*
X-352573000Y549523000D01*
X-352573000Y548273750D01*
X-352414250Y548115000D01*
X-351750000Y548111928D01*
X-351625518Y548124188D01*
X-351505820Y548160498D01*
X-351395506Y548219463D01*
X-351365063Y548244447D01*
X-351358223Y548175000D01*
X-351368072Y548075000D01*
X-351368072Y547958023D01*
X-351395506Y547980537D01*
X-351505820Y548039502D01*
X-351625518Y548075812D01*
X-351750000Y548088072D01*
X-352414250Y548085000D01*
X-352573000Y547926250D01*
X-352573000Y547077000D01*
X-352553000Y547077000D01*
X-352553000Y546823000D01*
X-352573000Y546823000D01*
X-352573000Y545252000D01*
X-352553000Y545252000D01*
X-352553000Y544998000D01*
X-352573000Y544998000D01*
X-352573000Y543823750D01*
X-352414250Y543665000D01*
X-352050000Y543661928D01*
X-351925518Y543674188D01*
X-351805820Y543710498D01*
X-351695506Y543769463D01*
X-351598815Y543848815D01*
X-351519463Y543945506D01*
X-351460498Y544055820D01*
X-351424188Y544175518D01*
X-351411928Y544300000D01*
X-351415000Y544839250D01*
X-351573748Y544997998D01*
X-351458595Y544997998D01*
X-351430537Y544945506D01*
X-351351185Y544848815D01*
X-351254494Y544769463D01*
X-351144180Y544710498D01*
X-351024482Y544674188D01*
X-350900000Y544661928D01*
X-350410750Y544665000D01*
X-350252000Y544823750D01*
X-350252000Y545885500D01*
X-349998000Y545885500D01*
X-349998000Y544823750D01*
X-349839250Y544665000D01*
X-349350000Y544661928D01*
X-349225518Y544674188D01*
X-349105820Y544710498D01*
X-348995506Y544769463D01*
X-348898815Y544848815D01*
X-348819463Y544945506D01*
X-348760498Y545055820D01*
X-348724188Y545175518D01*
X-348711928Y545300000D01*
X-348715000Y545726750D01*
X-348873750Y545885500D01*
X-349998000Y545885500D01*
X-350252000Y545885500D01*
X-350272000Y545885500D01*
X-350272000Y546139500D01*
X-350252000Y546139500D01*
X-350252000Y546159500D01*
X-349998000Y546159500D01*
X-349998000Y546139500D01*
X-348873750Y546139500D01*
X-348715000Y546298250D01*
X-348711928Y546725000D01*
X-348724188Y546849482D01*
X-348724978Y546852086D01*
X-348715000Y546943250D01*
X-348782968Y547011218D01*
X-348815991Y547072998D01*
X-348715000Y547072998D01*
X-348715000Y547090000D01*
X-334687322Y547090000D01*
X-334650000Y547086324D01*
X-334612678Y547090000D01*
X-334612667Y547090000D01*
X-334501014Y547100997D01*
X-334357753Y547144454D01*
X-334225724Y547215026D01*
X-334109999Y547309999D01*
X-334086197Y547339002D01*
X-333368991Y548056206D01*
X-333339999Y548079999D01*
X-333316205Y548108992D01*
X-333316201Y548108996D01*
X-333245027Y548195723D01*
X-333245026Y548195724D01*
X-333174454Y548327753D01*
X-333130997Y548471014D01*
X-333120000Y548582667D01*
X-333120000Y548582676D01*
X-333116324Y548619999D01*
X-333120000Y548657322D01*
X-333120000Y551721822D01*
X-332933368Y551846525D01*
X-332726525Y552053368D01*
X-332604805Y552235534D01*
X-332535178Y552118645D01*
X-332340269Y551902412D01*
X-332106920Y551728359D01*
X-331844099Y551603175D01*
X-331696890Y551558524D01*
X-331467000Y551679845D01*
X-331467000Y552873000D01*
X-331213000Y552873000D01*
X-331213000Y551679845D01*
X-330983110Y551558524D01*
X-330835901Y551603175D01*
X-330573080Y551728359D01*
X-330339731Y551902412D01*
X-330144822Y552118645D01*
X-329995843Y552368748D01*
X-329898519Y552643109D01*
X-330019186Y552873000D01*
X-331213000Y552873000D01*
X-331467000Y552873000D01*
X-331487000Y552873000D01*
X-331487000Y553127000D01*
X-331467000Y553127000D01*
X-331467000Y554320155D01*
X-331213000Y554320155D01*
X-331213000Y553127000D01*
X-330019186Y553127000D01*
X-329898519Y553356891D01*
X-329995843Y553631252D01*
X-330144822Y553881355D01*
X-330339731Y554097588D01*
X-330573080Y554271641D01*
X-330835901Y554396825D01*
X-330983110Y554441476D01*
X-331213000Y554320155D01*
X-331467000Y554320155D01*
X-331696890Y554441476D01*
X-331844099Y554396825D01*
X-332106920Y554271641D01*
X-332340269Y554097588D01*
X-332535178Y553881355D01*
X-332604805Y553764466D01*
X-332726525Y553946632D01*
X-332933368Y554153475D01*
X-333176589Y554315990D01*
X-333446842Y554427932D01*
X-333733740Y554485000D01*
X-334026260Y554485000D01*
X-334313158Y554427932D01*
X-334583411Y554315990D01*
X-334826632Y554153475D01*
X-335033475Y553946632D01*
X-335150000Y553772240D01*
X-335266525Y553946632D01*
X-335473368Y554153475D01*
X-335716589Y554315990D01*
X-335986842Y554427932D01*
X-336273740Y554485000D01*
X-336566260Y554485000D01*
X-336853158Y554427932D01*
X-337123411Y554315990D01*
X-337366632Y554153475D01*
X-337573475Y553946632D01*
X-337690000Y553772240D01*
X-337806525Y553946632D01*
X-338013368Y554153475D01*
X-338256589Y554315990D01*
X-338526842Y554427932D01*
X-338813740Y554485000D01*
X-339106260Y554485000D01*
X-339393158Y554427932D01*
X-339663411Y554315990D01*
X-339906632Y554153475D01*
X-340038487Y554021620D01*
X-340060498Y554094180D01*
X-340119463Y554204494D01*
X-340198815Y554301185D01*
X-340295506Y554380537D01*
X-340405820Y554439502D01*
X-340525518Y554475812D01*
X-340650000Y554488072D01*
X-342350000Y554488072D01*
X-342474482Y554475812D01*
X-342594180Y554439502D01*
X-342704494Y554380537D01*
X-342801185Y554301185D01*
X-342880537Y554204494D01*
X-342939502Y554094180D01*
X-342975812Y553974482D01*
X-342988072Y553850000D01*
X-342988072Y552150000D01*
X-342975812Y552025518D01*
X-342939502Y551905820D01*
X-342880537Y551795506D01*
X-342801185Y551698815D01*
X-342704494Y551619463D01*
X-342594180Y551560498D01*
X-342474482Y551524188D01*
X-342350000Y551511928D01*
X-342259999Y551511928D01*
X-342260000Y550560000D01*
X-348713980Y550560000D01*
X-348715000Y550701750D01*
X-348873750Y550860500D01*
X-349998000Y550860500D01*
X-349998000Y550840500D01*
X-350252000Y550840500D01*
X-350252000Y550860500D01*
X-350272000Y550860500D01*
X-350272000Y551114500D01*
X-350252000Y551114500D01*
X-350252000Y552176250D01*
X-349998000Y552176250D01*
X-349998000Y551114500D01*
X-348873750Y551114500D01*
X-348715000Y551273250D01*
X-348711928Y551700000D01*
X-348724188Y551824482D01*
X-348760498Y551944180D01*
X-348819463Y552054494D01*
X-348898815Y552151185D01*
X-348995506Y552230537D01*
X-349105820Y552289502D01*
X-349225518Y552325812D01*
X-349350000Y552338072D01*
X-349839250Y552335000D01*
X-349998000Y552176250D01*
X-350252000Y552176250D01*
X-350410750Y552335000D01*
X-350900000Y552338072D01*
X-351024482Y552325812D01*
X-351144180Y552289502D01*
X-351254494Y552230537D01*
X-351351185Y552151185D01*
X-351430537Y552054494D01*
X-351458595Y552002002D01*
X-351573748Y552002002D01*
X-351415000Y552160750D01*
X-351411928Y552700000D01*
X-351424188Y552824482D01*
X-351460498Y552944180D01*
X-351519463Y553054494D01*
X-351598815Y553151185D01*
X-351695506Y553230537D01*
X-351805820Y553289502D01*
X-351925518Y553325812D01*
X-352050000Y553338072D01*
X-352414250Y553335000D01*
X-352573000Y553176250D01*
X-352827000Y553176250D01*
X-352985750Y553335000D01*
X-353350000Y553338072D01*
X-353474482Y553325812D01*
X-353594180Y553289502D01*
X-353704494Y553230537D01*
X-353801185Y553151185D01*
X-353880537Y553054494D01*
X-353939502Y552944180D01*
X-353975812Y552824482D01*
X-353988072Y552700000D01*
X-354357500Y552700000D01*
X-354357500Y556670883D01*
X-352735000Y556670883D01*
X-352735000Y556329117D01*
X-352668325Y555993919D01*
X-352537537Y555678169D01*
X-352347663Y555394002D01*
X-352105998Y555152337D01*
X-351821831Y554962463D01*
X-351506081Y554831675D01*
X-351170883Y554765000D01*
X-350829117Y554765000D01*
X-350493919Y554831675D01*
X-350178169Y554962463D01*
X-349894002Y555152337D01*
X-349652337Y555394002D01*
X-349462463Y555678169D01*
X-349331675Y555993919D01*
X-349265000Y556329117D01*
X-349265000Y556670883D01*
X-320735000Y556670883D01*
X-320735000Y556329117D01*
X-320668325Y555993919D01*
X-320537537Y555678169D01*
X-320347663Y555394002D01*
X-320105998Y555152337D01*
X-319821831Y554962463D01*
X-319506081Y554831675D01*
X-319170883Y554765000D01*
X-318829117Y554765000D01*
X-318493919Y554831675D01*
X-318178169Y554962463D01*
X-317894002Y555152337D01*
X-317652337Y555394002D01*
X-317462463Y555678169D01*
X-317331675Y555993919D01*
X-317265000Y556329117D01*
X-317265000Y556670883D01*
X-317331675Y557006081D01*
X-317462463Y557321831D01*
X-317652337Y557605998D01*
X-317894002Y557847663D01*
X-318178169Y558037537D01*
X-318493919Y558168325D01*
X-318829117Y558235000D01*
X-319170883Y558235000D01*
X-319506081Y558168325D01*
X-319821831Y558037537D01*
X-320105998Y557847663D01*
X-320347663Y557605998D01*
X-320537537Y557321831D01*
X-320668325Y557006081D01*
X-320735000Y556670883D01*
X-349265000Y556670883D01*
X-349331675Y557006081D01*
X-349462463Y557321831D01*
X-349652337Y557605998D01*
X-349894002Y557847663D01*
X-350178169Y558037537D01*
X-350493919Y558168325D01*
X-350829117Y558235000D01*
X-351170883Y558235000D01*
X-351506081Y558168325D01*
X-351821831Y558037537D01*
X-352105998Y557847663D01*
X-352347663Y557605998D01*
X-352537537Y557321831D01*
X-352668325Y557006081D01*
X-352735000Y556670883D01*
X-354357500Y556670883D01*
X-354357500Y559357500D01*
X-315642500Y559357500D01*
X-315642499Y510642500D01*
G37*
%TD.AperFunction*%
%TD*%
M02*
