%TF.GenerationSoftware,KiCad,Pcbnew,(5.1.10)-1*%
%TF.CreationDate,2023-06-21T21:16:52+09:00*%
%TF.ProjectId,pokecom_cas_if,706f6b65-636f-46d5-9f63-61735f69662e,rev?*%
%TF.SameCoordinates,Original*%
%TF.FileFunction,Paste,Top*%
%TF.FilePolarity,Positive*%
%FSLAX46Y46*%
G04 Gerber Fmt 4.6, Leading zero omitted, Abs format (unit mm)*
G04 Created by KiCad (PCBNEW (5.1.10)-1) date 2023-06-21 21:16:52*
%MOMM*%
%LPD*%
G01*
G04 APERTURE LIST*
%ADD10R,1.900000X1.000000*%
%ADD11R,1.900000X1.800000*%
%ADD12R,1.300000X1.650000*%
%ADD13R,1.550000X1.425000*%
%ADD14R,1.380000X0.450000*%
G04 APERTURE END LIST*
D10*
%TO.C,J5*%
X-352700000Y546950000D03*
D11*
X-352700000Y549650000D03*
D12*
X-352700000Y545125000D03*
X-352700000Y551875000D03*
D13*
X-350125000Y546012500D03*
X-350125000Y550987500D03*
D14*
X-350040000Y547200000D03*
X-350040000Y547850000D03*
X-350040000Y548500000D03*
X-350040000Y549150000D03*
X-350040000Y549800000D03*
%TD*%
%TO.C,R1*%
G36*
G01*
X-329650000Y528762500D02*
X-329650000Y529237500D01*
G75*
G02*
X-329412500Y529475000I237500J0D01*
G01*
X-328837500Y529475000D01*
G75*
G02*
X-328600000Y529237500I0J-237500D01*
G01*
X-328600000Y528762500D01*
G75*
G02*
X-328837500Y528525000I-237500J0D01*
G01*
X-329412500Y528525000D01*
G75*
G02*
X-329650000Y528762500I0J237500D01*
G01*
G37*
G36*
G01*
X-331400000Y528762500D02*
X-331400000Y529237500D01*
G75*
G02*
X-331162500Y529475000I237500J0D01*
G01*
X-330587500Y529475000D01*
G75*
G02*
X-330350000Y529237500I0J-237500D01*
G01*
X-330350000Y528762500D01*
G75*
G02*
X-330587500Y528525000I-237500J0D01*
G01*
X-331162500Y528525000D01*
G75*
G02*
X-331400000Y528762500I0J237500D01*
G01*
G37*
%TD*%
%TO.C,R2*%
G36*
G01*
X-331400000Y521262500D02*
X-331400000Y521737500D01*
G75*
G02*
X-331162500Y521975000I237500J0D01*
G01*
X-330587500Y521975000D01*
G75*
G02*
X-330350000Y521737500I0J-237500D01*
G01*
X-330350000Y521262500D01*
G75*
G02*
X-330587500Y521025000I-237500J0D01*
G01*
X-331162500Y521025000D01*
G75*
G02*
X-331400000Y521262500I0J237500D01*
G01*
G37*
G36*
G01*
X-329650000Y521262500D02*
X-329650000Y521737500D01*
G75*
G02*
X-329412500Y521975000I237500J0D01*
G01*
X-328837500Y521975000D01*
G75*
G02*
X-328600000Y521737500I0J-237500D01*
G01*
X-328600000Y521262500D01*
G75*
G02*
X-328837500Y521025000I-237500J0D01*
G01*
X-329412500Y521025000D01*
G75*
G02*
X-329650000Y521262500I0J237500D01*
G01*
G37*
%TD*%
%TO.C,R3*%
G36*
G01*
X-347350000Y533237500D02*
X-347350000Y532762500D01*
G75*
G02*
X-347587500Y532525000I-237500J0D01*
G01*
X-348162500Y532525000D01*
G75*
G02*
X-348400000Y532762500I0J237500D01*
G01*
X-348400000Y533237500D01*
G75*
G02*
X-348162500Y533475000I237500J0D01*
G01*
X-347587500Y533475000D01*
G75*
G02*
X-347350000Y533237500I0J-237500D01*
G01*
G37*
G36*
G01*
X-345600000Y533237500D02*
X-345600000Y532762500D01*
G75*
G02*
X-345837500Y532525000I-237500J0D01*
G01*
X-346412500Y532525000D01*
G75*
G02*
X-346650000Y532762500I0J237500D01*
G01*
X-346650000Y533237500D01*
G75*
G02*
X-346412500Y533475000I237500J0D01*
G01*
X-345837500Y533475000D01*
G75*
G02*
X-345600000Y533237500I0J-237500D01*
G01*
G37*
%TD*%
%TO.C,R4*%
G36*
G01*
X-345600000Y538737500D02*
X-345600000Y538262500D01*
G75*
G02*
X-345837500Y538025000I-237500J0D01*
G01*
X-346412500Y538025000D01*
G75*
G02*
X-346650000Y538262500I0J237500D01*
G01*
X-346650000Y538737500D01*
G75*
G02*
X-346412500Y538975000I237500J0D01*
G01*
X-345837500Y538975000D01*
G75*
G02*
X-345600000Y538737500I0J-237500D01*
G01*
G37*
G36*
G01*
X-347350000Y538737500D02*
X-347350000Y538262500D01*
G75*
G02*
X-347587500Y538025000I-237500J0D01*
G01*
X-348162500Y538025000D01*
G75*
G02*
X-348400000Y538262500I0J237500D01*
G01*
X-348400000Y538737500D01*
G75*
G02*
X-348162500Y538975000I237500J0D01*
G01*
X-347587500Y538975000D01*
G75*
G02*
X-347350000Y538737500I0J-237500D01*
G01*
G37*
%TD*%
M02*
