M48
; DRILL file {KiCad (5.1.10)-1} date 06/21/23 21:16:56
; FORMAT={-:-/ absolute / inch / decimal}
; #@! TF.CreationDate,2023-06-21T21:16:56+09:00
; #@! TF.GenerationSoftware,Kicad,Pcbnew,(5.1.10)-1
FMAT,2
INCH
T1C0.0315
T2C0.0394
T3C0.0472
T4C0.0866
%
G90
G05
T1
X-13.8039Y21.2992
X-13.7992Y21.0827
X-13.5039Y21.2992
X-13.4992Y21.0827
X-13.3661Y21.4567
X-13.3661Y21.1417
X-13.3661Y20.8268
X-13.3661Y20.5315
X-13.1693Y21.4567
X-13.1693Y21.1417
X-13.1693Y20.9843
X-13.1693Y20.8268
X-13.1693Y20.6693
X-13.1693Y20.5315
X-12.8693Y20.9843
X-12.8693Y20.6693
T2
X-13.4449Y21.7717
X-13.3449Y21.7717
X-13.2449Y21.7717
X-13.1449Y21.7717
X-13.0449Y21.7717
X-12.7362Y21.5157
X-12.7362Y21.4157
X-12.7362Y21.3157
X-12.7362Y21.2157
X-12.7362Y21.1157
X-12.7362Y21.0157
X-12.7362Y20.9157
X-12.7362Y20.8157
X-12.7362Y20.7157
X-12.7362Y20.6157
X-12.7362Y20.5157
X-12.5394Y21.5157
X-12.5394Y21.4157
X-12.5394Y21.3157
X-12.5394Y21.2157
X-12.5394Y21.1157
X-12.5394Y21.0157
X-12.5394Y20.9157
X-12.5394Y20.8157
X-12.5394Y20.7157
X-12.5394Y20.6157
X-12.5394Y20.5157
T3
X-13.8976Y20.8268
X-13.8976Y20.4331
X-13.7992Y20.8268
X-13.7992Y20.4331
X-13.6024Y20.6299
T4
X-13.8189Y21.9094
X-13.7992Y20.2362
X-12.5591Y21.9094
X-12.5591Y20.2362
T1
G00X-13.7992Y20.6437
M15
G01X-13.7992Y20.6161
M16
G05
G00X-13.6161Y20.8268
M15
G01X-13.5886Y20.8268
M16
G05
G00X-13.6161Y20.7283
M15
G01X-13.5886Y20.7283
M16
G05
G00X-13.6161Y20.5315
M15
G01X-13.5886Y20.5315
M16
G05
G00X-13.6161Y20.4331
M15
G01X-13.5886Y20.4331
M16
G05
T0
M30
